<?xml version="1.0" encoding="UTF-8" standalone="no"?>
<svg
   xmlns:dc="http://purl.org/dc/elements/1.1/"
   xmlns:cc="http://creativecommons.org/ns#"
   xmlns:rdf="http://www.w3.org/1999/02/22-rdf-syntax-ns#"
   xmlns:svg="http://www.w3.org/2000/svg"
   xmlns="http://www.w3.org/2000/svg"
   viewBox="0 0 791.61249 174.75"
   height="174.75"
   width="791.61249"
   xml:space="preserve"
   version="1.1"
   id="svg2"><metadata
     id="metadata8"><rdf:RDF><cc:Work
         rdf:about=""><dc:format>image/svg+xml</dc:format><dc:type
           rdf:resource="http://purl.org/dc/dcmitype/StillImage" /></cc:Work></rdf:RDF></metadata><defs
     id="defs6" /><g
     transform="matrix(1.25,0,0,-1.25,0,174.75)"
     id="g10"><g
       transform="scale(0.1,0.1)"
       id="g12"><path
         id="path14"
         style="fill:#231f20;fill-opacity:1;fill-rule:nonzero;stroke:none"
         d="m 5400.9,931.992 466.01,0 0,-466.012 -466.01,0 0,466.012" /><path
         id="path16"
         style="fill:#16a152;fill-opacity:1;fill-rule:nonzero;stroke:none"
         d="m 5400.84,466.02 466.02,0 0,-466.02 -466.02,0 0,466.02" /><path
         id="path18"
         style="fill:#eb222c;fill-opacity:1;fill-rule:nonzero;stroke:none"
         d="m 5866.86,931.992 466.01,0 0,-466.012 -466.01,0 0,466.012" /><path
         id="path20"
         style="fill:#1e88ca;fill-opacity:1;fill-rule:nonzero;stroke:none"
         d="m 5866.86,1398.01 466.01,0 0,-466.018 -466.01,0 0,466.018" /><path
         id="path22"
         style="fill:#231f20;fill-opacity:1;fill-rule:evenodd;stroke:none"
         d="m 142.191,787.18 c 4.497,50.398 35.997,70.199 84.594,70.199 45,0 82.801,-8.098 82.801,-62.996 0,-52.199 -72.898,-50.403 -151.191,-61.195 C 79.1953,721.488 0,697.184 0,591.887 0,496.496 70.1953,452.395 158.395,452.395 c 56.695,0 116.093,15.3 156.589,57.597 0.899,-15.301 4.496,-30.594 9,-45 l 129.594,0 c -11.699,18.899 -16.199,61.203 -16.199,103.496 l 0,242.09 c 0,111.598 -111.594,132.301 -204.289,132.301 -104.399,0 -211.4923,-36 -218.6916,-155.699 l 127.7926,0 0,0 z M 309.586,644.984 c 0,-27.89 -3.602,-107.089 -103.496,-107.089 -41.399,0 -78.297,11.699 -78.297,59.39 0,46.801 36,60.305 75.598,68.403 39.597,7.195 84.597,8.105 106.195,27 l 0,-47.704" /><path
         id="path24"
         style="fill:#231f20;fill-opacity:1;fill-rule:nonzero;stroke:none"
         d="m 478.754,466.137 143.094,0 97.195,146.687 97.195,-146.687 145.797,0 -171.894,247.484 152.996,217.785 -141.297,0 -80.996,-121.492 -81.899,121.492 -145.793,0 152.996,-220.484 -167.394,-244.785 0,0" /><path
         id="path26"
         style="fill:#231f20;fill-opacity:1;fill-rule:evenodd;stroke:none"
         d="m 1079.8,747.586 c 1.81,35.996 25.2,98.992 106.2,98.992 62.1,0 90,-34.199 101.7,-98.992 l -207.9,0 0,0 z m 335.69,-81 c 9,143.094 -67.5,276.293 -225.89,276.293 -141.29,0 -237.592,-106.195 -237.592,-245.695 0,-143.989 90.902,-244.789 237.592,-244.789 105.3,0 181.79,46.796 217.79,156.593 l -112.49,0 c -8.1,-28.8 -49.5,-60.293 -100.8,-60.293 -71.1,0 -110.7,36.895 -114.3,117.891 l 335.69,0 0,0" /><path
         id="path28"
         style="fill:#231f20;fill-opacity:1;fill-rule:nonzero;stroke:none"
         d="m 1481.17,464.992 127.8,0 0,642.578 -127.8,0 0,-642.578" /><path
         id="path30"
         style="fill:#231f20;fill-opacity:1;fill-rule:nonzero;stroke:none"
         d="m 1811.21,616.195 c 5.4,-123.3 110.69,-163.8 218.69,-163.8 106.2,0 212.39,39.597 212.39,161.992 0,86.394 -72.9,113.398 -147.59,130.5 -72.9,17.097 -144.9,23.394 -144.9,69.297 0,37.796 42.3,43.195 71.1,43.195 45.9,0 83.7,-13.5 87.3,-62.996 l 121.49,0 c -9.9,114.297 -103.49,148.496 -205.19,148.496 -99.9,0 -202.49,-30.602 -202.49,-149.399 0,-81.894 73.8,-107.992 147.59,-124.191 91.8,-19.805 144.9,-33.301 144.9,-72.004 0,-45 -46.8,-59.39 -83.7,-59.39 -50.4,0 -97.2,22.5 -98.09,78.3 l -121.5,0 0,0" /><path
         id="path32"
         style="fill:#231f20;fill-opacity:1;fill-rule:evenodd;stroke:none"
         d="m 2533.75,548.695 c -82.8,0 -111.6,71.993 -111.6,147.59 0,75.598 27,150.293 110.7,150.293 81.9,0 111.59,-76.492 111.59,-150.293 0,-75.597 -27,-147.59 -110.69,-147.59 l 0,0 z m -234.89,-247.496 127.79,0 0,221.391 1.8,0 c 30.6,-45.899 83.7,-70.195 139.49,-70.195 135.9,0 204.3,116.093 204.3,240.293 0,132.296 -65.7,250.191 -211.49,250.191 -57.6,0 -108,-22.5 -138.6,-72.004 l -1.8,0 0,59.402 -121.49,0 0,-629.078" /><path
         id="path34"
         style="fill:#231f20;fill-opacity:1;fill-rule:nonzero;stroke:none"
         d="m 2825.15,464.992 127.8,0 0,209.699 c 0,81.895 32.4,137.168 126,137.168 15.29,0 34.19,-1.804 45.89,-4.504 l 0,122.446 c -8.86,0.633 -18.9,0.851 -27.9,0.851 -62.09,0 -125.09,-28.277 -148.49,-86.773 l -1.8,0 0,86.398 -121.5,0 0,-465.285" /><path
         id="path36"
         style="fill:#231f20;fill-opacity:1;fill-rule:evenodd;stroke:none"
         d="m 3312.71,1107.57 -127.79,0 0,-105.3 127.79,0 0,105.3 z m -127.79,-642.578 127.79,0 0,465.285 -127.79,0 0,-465.285" /><path
         id="path38"
         style="fill:#231f20;fill-opacity:1;fill-rule:nonzero;stroke:none"
         d="m 3385.68,464.992 127.8,0 0,243.891 c 0,94.5 29.68,133.195 98.98,133.195 59.42,0 81.92,-37.797 81.92,-114.293 l 0,-262.793 127.79,0 0,286.192 c 0,115.195 -34.2,191.695 -170.1,191.695 -54,0 -109.8,-25.199 -142.21,-77.399 l -2.69,0 0,64.797 -121.49,0 0,-465.285" /><path
         id="path40"
         style="fill:#231f20;fill-opacity:1;fill-rule:evenodd;stroke:none"
         d="m 4118.13,574.785 c -78.31,0 -103.5,72.903 -103.5,139.5 0,69.297 31.48,132.293 103.5,132.293 82.79,0 108.88,-67.492 108.88,-143.094 0,-66.597 -35.99,-128.699 -108.88,-128.699 l 0,0 z m 230.39,355.492 -121.51,0 0,-62.101 -1.8,0 c -30.6,54 -77.4,74.703 -138.59,74.703 -130.51,0 -199.78,-109.801 -199.78,-230.391 0,-127.797 59.39,-233.992 198.88,-233.992 55.8,0 111.58,23.402 139.49,71.992 l 1.8,0 0,-61.187 c 0,-66.606 -31.5,-115.199 -102.6,-115.199 -45,0 -83.69,16.199 -95.39,63.898 l -126.89,0 c 6.29,-106.199 113.4,-149.391 205.19,-149.391 214.18,0 241.2,129.586 241.2,206.082 l 0,435.586" /><path
         id="path42"
         style="fill:#231f20;fill-opacity:1;fill-rule:evenodd;stroke:none"
         d="m 4537.32,747.586 c 1.8,35.996 25.2,98.992 106.2,98.992 62.11,0 90,-34.199 101.69,-98.992 l -207.89,0 0,0 z m 335.69,-81 c 9,143.094 -67.5,276.293 -225.9,276.293 -141.29,0 -237.58,-106.195 -237.58,-245.695 0,-143.989 90.9,-244.789 237.58,-244.789 105.31,0 181.8,46.796 217.79,156.593 l -112.48,0 c -8.1,-28.8 -49.51,-60.293 -100.8,-60.293 -71.09,0 -110.7,36.895 -114.3,117.891 l 335.69,0 0,0" /><path
         id="path44"
         style="fill:#231f20;fill-opacity:1;fill-rule:nonzero;stroke:none"
         d="m 4940.61,466.691 127.81,0 0,209.688 c 0,81.898 32.38,137.172 125.99,137.172 15.3,0 34.18,-1.797 45.9,-4.496 l 0,122.441 c -8.86,0.637 -18.9,0.852 -27.91,0.852 -62.09,0 -125.1,-28.274 -148.49,-86.77 l -1.8,0 0,86.391 -121.5,0 0,-465.278" /></g></g></svg>