<?xml version="1.0" encoding="UTF-8" standalone="no"?>
<svg
   xmlns:dc="http://purl.org/dc/elements/1.1/"
   xmlns:cc="http://creativecommons.org/ns#"
   xmlns:rdf="http://www.w3.org/1999/02/22-rdf-syntax-ns#"
   xmlns:svg="http://www.w3.org/2000/svg"
   xmlns="http://www.w3.org/2000/svg"
   viewBox="0 0 1020.32 249"
   height="249"
   width="1020.32"
   xml:space="preserve"
   id="svg2"
   version="1.1"><metadata
     id="metadata8"><rdf:RDF><cc:Work
         rdf:about=""><dc:format>image/svg+xml</dc:format><dc:type
           rdf:resource="http://purl.org/dc/dcmitype/StillImage" /></cc:Work></rdf:RDF></metadata><defs
     id="defs6" /><g
     transform="matrix(1.3333333,0,0,-1.3333333,0,249)"
     id="g10"><g
       transform="scale(0.1)"
       id="g12"><path
         id="path14"
         style="fill:#f8a30d;fill-opacity:1;fill-rule:nonzero;stroke:none"
         d="m 2749.88,682.219 c 0,-53.828 1.55,-106.989 6.25,-154.848 h -172.1 c -4.59,39.418 -6.26,78.578 -6.26,116.559 -93.04,-114.391 -203.72,-147.258 -357.24,-147.258 -227.71,0 -349.63,120.348 -349.63,259.566 0,201.625 165.82,272.712 453.7,279.312 78.73,1.8 167.16,2.06 240.26,2.06 l -0.01,19.71 c 0,134.98 -86.55,190.47 -236.54,190.47 -111.34,0 -193.41,-46.08 -201.86,-125.7 h -194.39 c 20.58,198.53 229.15,248.73 412.54,248.73 219.71,0 405.28,-78.17 405.28,-310.55 z m -412.59,229.277 c -167.76,-5.5 -271.99,-35.762 -271.99,-146.266 0,-71.539 57.03,-149.089 201.82,-149.089 194.11,0 297.73,105.8 297.73,279.347 l 0.01,19.094 c -68.05,0 -151.99,-0.605 -227.57,-3.086" /><path
         id="path16"
         style="fill:#ee293d;fill-opacity:1;fill-rule:nonzero;stroke:none"
         d="M 188.418,886.926 C 198.402,719 314.199,619.68 473.434,619.68 c 110.304,0 208.441,44.949 241.293,142.73 h 190.82 C 868.438,564.02 657.617,496.672 476.16,496.672 146.227,496.672 0,678.371 0,923.41 c 0,269.75 151.238,447.41 479.172,447.41 261.023,0 452.262,-136.59 452.262,-434.754 v -49.14 z m 548.633,123.034 c -7.188,173.07 -132.102,237.83 -265.606,237.83 -143.968,0 -258.906,-72.86 -279.039,-237.83 h 544.645" /><path
         id="path18"
         style="fill:#2d71c1;fill-opacity:1;fill-rule:nonzero;stroke:none"
         d="m 931.426,1696.17 h 184.984 l -0.02,-464.74 c 90.66,108.03 215.56,139.39 338.51,139.39 206.14,0 435.1,-139.1 435.1,-439.441 0,-251.52 -182.09,-434.707 -438.54,-434.707 -134.22,0 -260.58,48.148 -338.5,143.558 0,-38.109 -2.12,-76.519 -6.28,-112.859 H 925.137 c 3.144,58.738 6.289,131.879 6.289,191.059 z M 1406.02,623.191 c 171.93,0 289.59,123.75 289.59,310.532 0,186.747 -117.66,310.517 -289.59,310.517 -170.98,0 -289.61,-123.77 -289.61,-310.517 0,-186.782 118.63,-310.532 289.61,-310.532" /><path
         id="path20"
         style="fill:#70c72d;fill-opacity:1;fill-rule:nonzero;stroke:none"
         d="M 3691.95,1340.05 3119.91,216.609 h -207.14 l 164.45,311.961 -430.48,811.48 h 216.44 l 316.78,-634.019 315.89,634.019 h 196.1" /><path
         id="path22"
         style="fill:#090807;fill-opacity:1;fill-rule:nonzero;stroke:none"
         d="m 3775.37,1340.06 h 15.41 v -21.1 h 23.45 v -10.71 h -23.45 v -45.77 c 0,-8.5 2.36,-13.09 12.07,-13.09 2.85,0 7.42,0.31 11.89,0.94 v -10.78 c -5.1,-0.62 -10.18,-0.94 -14.9,-0.94 -15.59,0 -24.47,5.07 -24.47,22.76 v 46.88 h -20.83 v 10.71 h 20.83 v 21.1" /><path
         id="path24"
         style="fill:#090807;fill-opacity:1;fill-rule:nonzero;stroke:none"
         d="m 3834.84,1300.96 c 0,6.01 -0.33,11.74 -0.65,18 h 14.44 c 0.29,-3.94 0.62,-8.49 0.62,-14.04 h 0.35 c 9.05,12.13 20.45,17.07 33.46,17.07 13.34,0 24.3,-6.53 28.89,-19.92 5.72,10.88 18.08,19.92 32.81,19.92 22.56,0 36.52,-11.03 36.52,-36.9 v -45.54 h -15.54 v 39.74 c 0,19.28 -5.57,31.98 -22.37,31.98 -13.65,0 -27.59,-9.37 -27.59,-35.45 v -36.27 h -15.43 v 40.7 c 0,21.35 -7.31,31.02 -21.59,31.02 -13.61,0 -28.53,-9.84 -28.53,-33.24 v -38.48 h -15.39 v 61.41" /><path
         id="path26"
         style="fill:#70c72d;fill-opacity:1;fill-rule:nonzero;stroke:none"
         d="M 3691.95,1340.05 3119.91,216.609 h -207.14 l 164.45,311.961 -430.48,811.48 h 216.44 l 316.78,-634.019 315.89,634.019 h 196.1" /><path
         id="path28"
         style="fill:#ee293d;fill-opacity:1;fill-rule:nonzero;stroke:none"
         d="m 7353.57,1742.99 h 124.5 v 124.508 h -124.5 z" /><path
         id="path30"
         style="fill:#ee293d;fill-opacity:1;fill-rule:nonzero;stroke:none"
         d="m 7353.57,1045.79 h 124.5 v 124.488 h -124.5 z" /><path
         id="path32"
         style="fill:#f8a30d;fill-opacity:1;fill-rule:nonzero;stroke:none"
         d="m 7004.97,174.309 h 124.512 V 298.801 H 7004.97 Z" /><path
         id="path34"
         style="fill:#f36717;fill-opacity:1;fill-rule:nonzero;stroke:none"
         d="m 7527.87,522.898 h 124.508 V 647.41 H 7527.87 Z" /><path
         id="path36"
         style="fill:#d8d1c9;fill-opacity:1;fill-rule:nonzero;stroke:none"
         d="m 5087.68,1742.99 h 124.492 v 124.508 H 5087.68 Z" /><path
         id="path38"
         style="fill:#d8d1c9;fill-opacity:1;fill-rule:nonzero;stroke:none"
         d="m 6307.78,1742.99 h 124.5 v 124.508 h -124.5 z" /><path
         id="path40"
         style="fill:#d8d1c9;fill-opacity:1;fill-rule:nonzero;stroke:none"
         d="m 4739.09,1568.69 h 124.512 v 124.488 H 4739.09 Z" /><path
         id="path42"
         style="fill:#d8d1c9;fill-opacity:1;fill-rule:nonzero;stroke:none"
         d="m 6830.67,1568.69 h 124.508 v 124.488 H 6830.67 Z" /><path
         id="path44"
         style="fill:#d8d1c9;fill-opacity:1;fill-rule:nonzero;stroke:none"
         d="m 4041.89,1045.79 h 124.512 v 124.488 H 4041.89 Z" /><path
         id="path46"
         style="fill:#d8d1c9;fill-opacity:1;fill-rule:nonzero;stroke:none"
         d="m 4390.48,522.898 h 124.508 V 647.39 H 4390.48 Z" /><path
         id="path48"
         style="fill:#d8d1c9;fill-opacity:1;fill-rule:nonzero;stroke:none"
         d="m 5261.99,174.309 h 124.5 v 124.492 h -124.5 z" /><path
         id="path50"
         style="fill:#d8d1c9;fill-opacity:1;fill-rule:nonzero;stroke:none"
         d="m 7179.28,174.309 h 124.508 V 298.801 H 7179.28 Z" /><path
         id="path52"
         style="fill:#d8d1c9;fill-opacity:1;fill-rule:nonzero;stroke:none"
         d="m 5610.58,0 h 124.488 V 124.512 H 5610.58 Z" /><path
         id="path54"
         style="fill:#d8d1c9;fill-opacity:1;fill-rule:nonzero;stroke:none"
         d="m 4390.48,1394.4 h 124.508 v 124.488 H 4390.48 Z" /><path
         id="path56"
         style="fill:#d8d1c9;fill-opacity:1;fill-rule:nonzero;stroke:none"
         d="m 4216.2,348.59 h 124.5 v 124.488 h -124.5 z" /><path
         id="path58"
         style="fill:#4f4c4c;fill-opacity:1;fill-rule:nonzero;stroke:none"
         d="m 4564.79,1220.1 h 124.5 v 124.488 h -124.5 z" /><path
         id="path60"
         style="fill:#4f4c4c;fill-opacity:1;fill-rule:nonzero;stroke:none"
         d="m 4739.09,1220.1 h 124.512 v 124.488 H 4739.09 Z" /><path
         id="path62"
         style="fill:#4f4c4c;fill-opacity:1;fill-rule:nonzero;stroke:none"
         d="m 4913.38,1220.1 h 124.5 v 124.488 h -124.5 z" /><path
         id="path64"
         style="fill:#4f4c4c;fill-opacity:1;fill-rule:nonzero;stroke:none"
         d="m 5261.99,1220.1 h 124.5 v 124.488 h -124.5 z" /><path
         id="path66"
         style="fill:#4f4c4c;fill-opacity:1;fill-rule:nonzero;stroke:none"
         d="m 5436.29,1220.1 h 124.512 v 124.488 H 5436.29 Z" /><path
         id="path68"
         style="fill:#4f4c4c;fill-opacity:1;fill-rule:nonzero;stroke:none"
         d="m 5610.58,1220.1 h 124.5 v 124.488 h -124.5 z" /><path
         id="path70"
         style="fill:#4f4c4c;fill-opacity:1;fill-rule:nonzero;stroke:none"
         d="m 5959.19,1220.1 h 124.5 v 124.488 h -124.5 z" /><path
         id="path72"
         style="fill:#4f4c4c;fill-opacity:1;fill-rule:nonzero;stroke:none"
         d="m 6133.47,1220.1 h 124.512 v 124.488 H 6133.47 Z" /><path
         id="path74"
         style="fill:#4f4c4c;fill-opacity:1;fill-rule:nonzero;stroke:none"
         d="m 6307.78,1220.1 h 124.5 v 124.488 h -124.5 z" /><path
         id="path76"
         style="fill:#4f4c4c;fill-opacity:1;fill-rule:nonzero;stroke:none"
         d="m 6656.37,1220.1 h 124.5 v 124.488 h -124.5 z" /><path
         id="path78"
         style="fill:#4f4c4c;fill-opacity:1;fill-rule:nonzero;stroke:none"
         d="m 7004.97,1220.1 h 124.512 v 124.488 H 7004.97 Z" /><path
         id="path80"
         style="fill:#4f4c4c;fill-opacity:1;fill-rule:nonzero;stroke:none"
         d="m 4739.09,1045.79 h 124.512 v 124.488 H 4739.09 Z" /><path
         id="path82"
         style="fill:#4f4c4c;fill-opacity:1;fill-rule:nonzero;stroke:none"
         d="m 5261.99,1045.79 h 124.5 v 124.488 h -124.5 z" /><path
         id="path84"
         style="fill:#4f4c4c;fill-opacity:1;fill-rule:nonzero;stroke:none"
         d="m 5959.19,1045.79 h 124.5 v 124.488 h -124.5 z" /><path
         id="path86"
         style="fill:#4f4c4c;fill-opacity:1;fill-rule:nonzero;stroke:none"
         d="m 6656.37,1045.79 h 124.5 v 124.488 h -124.5 z" /><path
         id="path88"
         style="fill:#4f4c4c;fill-opacity:1;fill-rule:nonzero;stroke:none"
         d="m 7004.97,1045.79 h 124.512 v 124.488 H 7004.97 Z" /><path
         id="path90"
         style="fill:#4f4c4c;fill-opacity:1;fill-rule:nonzero;stroke:none"
         d="m 4739.09,871.508 h 124.512 V 995.996 H 4739.09 Z" /><path
         id="path92"
         style="fill:#4f4c4c;fill-opacity:1;fill-rule:nonzero;stroke:none"
         d="m 5261.99,871.508 h 124.5 v 124.488 h -124.5 z" /><path
         id="path94"
         style="fill:#4f4c4c;fill-opacity:1;fill-rule:nonzero;stroke:none"
         d="m 5436.29,871.508 h 124.512 V 995.996 H 5436.29 Z" /><path
         id="path96"
         style="fill:#4f4c4c;fill-opacity:1;fill-rule:nonzero;stroke:none"
         d="m 5610.58,871.508 h 124.5 v 124.488 h -124.5 z" /><path
         id="path98"
         style="fill:#4f4c4c;fill-opacity:1;fill-rule:nonzero;stroke:none"
         d="m 5959.19,871.508 h 124.5 v 124.488 h -124.5 z" /><path
         id="path100"
         style="fill:#4f4c4c;fill-opacity:1;fill-rule:nonzero;stroke:none"
         d="m 6656.37,871.508 h 124.5 v 124.488 h -124.5 z" /><path
         id="path102"
         style="fill:#4f4c4c;fill-opacity:1;fill-rule:nonzero;stroke:none"
         d="m 6830.67,871.508 h 124.508 V 995.996 H 6830.67 Z" /><path
         id="path104"
         style="fill:#4f4c4c;fill-opacity:1;fill-rule:nonzero;stroke:none"
         d="m 7004.97,871.508 h 124.512 V 995.996 H 7004.97 Z" /><path
         id="path106"
         style="fill:#4f4c4c;fill-opacity:1;fill-rule:nonzero;stroke:none"
         d="m 4739.09,697.199 h 124.512 V 821.691 H 4739.09 Z" /><path
         id="path108"
         style="fill:#4f4c4c;fill-opacity:1;fill-rule:nonzero;stroke:none"
         d="m 5261.99,697.199 h 124.5 v 124.492 h -124.5 z" /><path
         id="path110"
         style="fill:#4f4c4c;fill-opacity:1;fill-rule:nonzero;stroke:none"
         d="m 5959.19,697.199 h 124.5 v 124.492 h -124.5 z" /><path
         id="path112"
         style="fill:#4f4c4c;fill-opacity:1;fill-rule:nonzero;stroke:none"
         d="m 6656.37,697.199 h 124.5 v 124.492 h -124.5 z" /><path
         id="path114"
         style="fill:#4f4c4c;fill-opacity:1;fill-rule:nonzero;stroke:none"
         d="m 7004.97,697.199 h 124.512 V 821.691 H 7004.97 Z" /><path
         id="path116"
         style="fill:#4f4c4c;fill-opacity:1;fill-rule:nonzero;stroke:none"
         d="m 4739.09,522.898 h 124.512 V 647.39 H 4739.09 Z" /><path
         id="path118"
         style="fill:#4f4c4c;fill-opacity:1;fill-rule:nonzero;stroke:none"
         d="m 5261.99,522.898 h 124.5 V 647.39 h -124.5 z" /><path
         id="path120"
         style="fill:#4f4c4c;fill-opacity:1;fill-rule:nonzero;stroke:none"
         d="m 5436.29,522.898 h 124.512 V 647.39 H 5436.29 Z" /><path
         id="path122"
         style="fill:#4f4c4c;fill-opacity:1;fill-rule:nonzero;stroke:none"
         d="m 5610.58,522.898 h 124.5 V 647.39 h -124.5 z" /><path
         id="path124"
         style="fill:#4f4c4c;fill-opacity:1;fill-rule:nonzero;stroke:none"
         d="m 5959.19,522.898 h 124.5 V 647.39 h -124.5 z" /><path
         id="path126"
         style="fill:#4f4c4c;fill-opacity:1;fill-rule:nonzero;stroke:none"
         d="m 6133.47,522.898 h 124.512 V 647.39 H 6133.47 Z" /><path
         id="path128"
         style="fill:#4f4c4c;fill-opacity:1;fill-rule:nonzero;stroke:none"
         d="m 6307.78,522.898 h 124.5 V 647.39 h -124.5 z" /><path
         id="path130"
         style="fill:#4f4c4c;fill-opacity:1;fill-rule:nonzero;stroke:none"
         d="m 6656.37,522.898 h 124.5 V 647.39 h -124.5 z" /><path
         id="path132"
         style="fill:#4f4c4c;fill-opacity:1;fill-rule:nonzero;stroke:none"
         d="m 7004.97,522.898 h 124.512 V 647.39 H 7004.97 Z" /><path
         id="path134"
         style="fill:#e9e9e9;fill-opacity:1;fill-rule:nonzero;stroke:none"
         d="m 5436.27,1742.99 h 124.512 v 124.508 H 5436.27 Z" /><path
         id="path136"
         style="fill:#f8a30d;fill-opacity:1;fill-rule:nonzero;stroke:none"
         d="m 6482.06,1742.99 h 124.512 v 124.508 H 6482.06 Z" /><path
         id="path138"
         style="fill:#f8a30d;fill-opacity:1;fill-rule:nonzero;stroke:none"
         d="m 4390.48,1568.69 h 124.508 v 124.488 H 4390.48 Z" /><path
         id="path140"
         style="fill:#2d71c1;fill-opacity:1;fill-rule:nonzero;stroke:none"
         d="m 6133.47,1568.69 h 124.512 v 124.488 H 6133.47 Z" /><path
         id="path142"
         style="fill:#2d71c1;fill-opacity:1;fill-rule:nonzero;stroke:none"
         d="m 7179.28,1568.69 h 124.508 v 124.488 H 7179.28 Z" /><path
         id="path144"
         style="fill:#70c72d;fill-opacity:1;fill-rule:nonzero;stroke:none"
         d="m 5087.68,1394.4 h 124.512 v 124.488 H 5087.68 Z" /><path
         id="path146"
         style="fill:#2d71c1;fill-opacity:1;fill-rule:nonzero;stroke:none"
         d="m 4041.89,697.199 h 124.512 V 821.691 H 4041.89 Z" /><path
         id="path148"
         style="fill:#70c72d;fill-opacity:1;fill-rule:nonzero;stroke:none"
         d="m 7353.57,697.199 h 124.5 v 124.492 h -124.5 z" /><path
         id="path150"
         style="fill:#70c72d;fill-opacity:1;fill-rule:nonzero;stroke:none"
         d="m 4390.48,174.309 h 124.508 V 298.801 H 4390.48 Z" /><path
         id="path152"
         style="fill:#ee293d;fill-opacity:1;fill-rule:nonzero;stroke:none"
         d="m 4913.38,174.309 h 124.5 v 124.492 h -124.5 z" /><path
         id="path154"
         style="fill:#f8a30d;fill-opacity:1;fill-rule:nonzero;stroke:none"
         d="m 5610.58,174.309 h 124.5 v 124.492 h -124.5 z" /><path
         id="path156"
         style="fill:#2d71c1;fill-opacity:1;fill-rule:nonzero;stroke:none"
         d="m 4564.79,348.59 h 124.5 v 124.488 h -124.5 z" /><path
         id="path158"
         style="fill:#f36717;fill-opacity:1;fill-rule:nonzero;stroke:none"
         d="m 4390.48,871.508 h 124.508 V 995.996 H 4390.48 Z" /><path
         id="path160"
         style="fill:#f36717;fill-opacity:1;fill-rule:nonzero;stroke:none"
         d="m 4739.09,1742.99 h 124.512 v 124.508 H 4739.09 Z" /><path
         id="path162"
         style="fill:#e9e9e9;fill-opacity:1;fill-rule:nonzero;stroke:none"
         d="m 4390.48,1742.99 h 124.508 v 124.508 H 4390.48 Z" /><path
         id="path164"
         style="fill:#e9e9e9;fill-opacity:1;fill-rule:nonzero;stroke:none"
         d="m 5959.17,1742.99 h 124.5 v 124.508 h -124.5 z" /><path
         id="path166"
         style="fill:#e9e9e9;fill-opacity:1;fill-rule:nonzero;stroke:none"
         d="m 7004.96,1742.99 h 124.5 v 124.508 h -124.5 z" /><path
         id="path168"
         style="fill:#e9e9e9;fill-opacity:1;fill-rule:nonzero;stroke:none"
         d="m 4216.2,1568.69 h 124.5 v 124.488 h -124.5 z" /><path
         id="path170"
         style="fill:#e9e9e9;fill-opacity:1;fill-rule:nonzero;stroke:none"
         d="m 4564.79,1568.69 h 124.5 v 124.488 h -124.5 z" /><path
         id="path172"
         style="fill:#e9e9e9;fill-opacity:1;fill-rule:nonzero;stroke:none"
         d="m 4913.38,1568.69 h 124.5 v 124.488 h -124.5 z" /><path
         id="path174"
         style="fill:#e9e9e9;fill-opacity:1;fill-rule:nonzero;stroke:none"
         d="m 5087.68,1568.69 h 124.512 v 124.488 H 5087.68 Z" /><path
         id="path176"
         style="fill:#e9e9e9;fill-opacity:1;fill-rule:nonzero;stroke:none"
         d="m 5610.58,1568.69 h 124.5 v 124.488 h -124.5 z" /><path
         id="path178"
         style="fill:#e9e9e9;fill-opacity:1;fill-rule:nonzero;stroke:none"
         d="m 5784.88,1568.69 h 124.512 v 124.488 H 5784.88 Z" /><path
         id="path180"
         style="fill:#e9e9e9;fill-opacity:1;fill-rule:nonzero;stroke:none"
         d="m 5959.19,1568.69 h 124.5 v 124.488 h -124.5 z" /><path
         id="path182"
         style="fill:#e9e9e9;fill-opacity:1;fill-rule:nonzero;stroke:none"
         d="m 6307.78,1568.69 h 124.5 v 124.488 h -124.5 z" /><path
         id="path184"
         style="fill:#e9e9e9;fill-opacity:1;fill-rule:nonzero;stroke:none"
         d="m 6482.08,1568.69 h 124.508 v 124.488 H 6482.08 Z" /><path
         id="path186"
         style="fill:#e9e9e9;fill-opacity:1;fill-rule:nonzero;stroke:none"
         d="m 7004.97,1568.69 h 124.512 v 124.488 H 7004.97 Z" /><path
         id="path188"
         style="fill:#e9e9e9;fill-opacity:1;fill-rule:nonzero;stroke:none"
         d="m 7353.57,1568.69 h 124.5 v 124.488 h -124.5 z" /><path
         id="path190"
         style="fill:#e9e9e9;fill-opacity:1;fill-rule:nonzero;stroke:none"
         d="m 4041.89,1394.4 h 124.512 v 124.488 H 4041.89 Z" /><path
         id="path192"
         style="fill:#e9e9e9;fill-opacity:1;fill-rule:nonzero;stroke:none"
         d="m 4216.2,1220.1 h 124.5 v 124.488 h -124.5 z" /><path
         id="path194"
         style="fill:#e9e9e9;fill-opacity:1;fill-rule:nonzero;stroke:none"
         d="m 4390.48,1220.1 h 124.508 v 124.488 H 4390.48 Z" /><path
         id="path196"
         style="fill:#e9e9e9;fill-opacity:1;fill-rule:nonzero;stroke:none"
         d="m 7353.57,1220.1 h 124.5 v 124.488 h -124.5 z" /><path
         id="path198"
         style="fill:#e9e9e9;fill-opacity:1;fill-rule:nonzero;stroke:none"
         d="m 7527.87,1220.1 h 124.508 v 124.508 H 7527.87 Z" /><path
         id="path200"
         style="fill:#e9e9e9;fill-opacity:1;fill-rule:nonzero;stroke:none"
         d="m 5087.68,1045.79 h 124.512 v 124.488 H 5087.68 Z" /><path
         id="path202"
         style="fill:#e9e9e9;fill-opacity:1;fill-rule:nonzero;stroke:none"
         d="m 7179.28,1045.79 h 124.508 v 124.488 H 7179.28 Z" /><path
         id="path204"
         style="fill:#e9e9e9;fill-opacity:1;fill-rule:nonzero;stroke:none"
         d="m 4216.2,871.508 h 124.5 v 124.488 h -124.5 z" /><path
         id="path206"
         style="fill:#e9e9e9;fill-opacity:1;fill-rule:nonzero;stroke:none"
         d="m 4564.79,871.508 h 124.5 v 124.488 h -124.5 z" /><path
         id="path208"
         style="fill:#e9e9e9;fill-opacity:1;fill-rule:nonzero;stroke:none"
         d="m 5087.68,871.508 h 124.512 V 995.996 H 5087.68 Z" /><path
         id="path210"
         style="fill:#e9e9e9;fill-opacity:1;fill-rule:nonzero;stroke:none"
         d="m 7179.28,871.508 h 124.508 V 995.996 H 7179.28 Z" /><path
         id="path212"
         style="fill:#e9e9e9;fill-opacity:1;fill-rule:nonzero;stroke:none"
         d="m 7353.57,871.508 h 124.5 v 124.488 h -124.5 z" /><path
         id="path214"
         style="fill:#e9e9e9;fill-opacity:1;fill-rule:nonzero;stroke:none"
         d="m 4216.2,697.199 h 124.5 v 124.492 h -124.5 z" /><path
         id="path216"
         style="fill:#e9e9e9;fill-opacity:1;fill-rule:nonzero;stroke:none"
         d="m 5087.68,697.199 h 124.512 V 821.691 H 5087.68 Z" /><path
         id="path218"
         style="fill:#e9e9e9;fill-opacity:1;fill-rule:nonzero;stroke:none"
         d="m 4041.89,522.898 h 124.512 V 647.39 H 4041.89 Z" /><path
         id="path220"
         style="fill:#e9e9e9;fill-opacity:1;fill-rule:nonzero;stroke:none"
         d="m 7353.57,522.898 h 124.5 V 647.39 h -124.5 z" /><path
         id="path222"
         style="fill:#e9e9e9;fill-opacity:1;fill-rule:nonzero;stroke:none"
         d="m 7004.97,348.59 h 124.512 V 473.078 H 7004.97 Z" /><path
         id="path224"
         style="fill:#e9e9e9;fill-opacity:1;fill-rule:nonzero;stroke:none"
         d="m 7527.87,348.609 h 124.508 V 473.101 H 7527.87 Z" /><path
         id="path226"
         style="fill:#e9e9e9;fill-opacity:1;fill-rule:nonzero;stroke:none"
         d="m 4564.79,174.309 h 124.5 v 124.492 h -124.5 z" /><path
         id="path228"
         style="fill:#e9e9e9;fill-opacity:1;fill-rule:nonzero;stroke:none"
         d="m 4739.09,174.309 h 124.512 V 298.801 H 4739.09 Z" /><path
         id="path230"
         style="fill:#e9e9e9;fill-opacity:1;fill-rule:nonzero;stroke:none"
         d="m 5087.68,174.309 h 124.512 V 298.801 H 5087.68 Z" /><path
         id="path232"
         style="fill:#e9e9e9;fill-opacity:1;fill-rule:nonzero;stroke:none"
         d="m 5436.29,174.309 h 124.512 V 298.801 H 5436.29 Z" /><path
         id="path234"
         style="fill:#e9e9e9;fill-opacity:1;fill-rule:nonzero;stroke:none"
         d="m 5784.88,174.309 h 124.512 V 298.801 H 5784.88 Z" /><path
         id="path236"
         style="fill:#e9e9e9;fill-opacity:1;fill-rule:nonzero;stroke:none"
         d="m 5959.19,174.309 h 124.5 v 124.492 h -124.5 z" /><path
         id="path238"
         style="fill:#e9e9e9;fill-opacity:1;fill-rule:nonzero;stroke:none"
         d="m 6482.08,174.309 h 124.508 V 298.801 H 6482.08 Z" /><path
         id="path240"
         style="fill:#e9e9e9;fill-opacity:1;fill-rule:nonzero;stroke:none"
         d="m 6656.37,174.309 h 124.5 v 124.492 h -124.5 z" /><path
         id="path242"
         style="fill:#e9e9e9;fill-opacity:1;fill-rule:nonzero;stroke:none"
         d="m 7353.57,174.309 h 124.5 v 124.492 h -124.5 z" /><path
         id="path244"
         style="fill:#e9e9e9;fill-opacity:1;fill-rule:nonzero;stroke:none"
         d="m 4216.2,0 h 124.5 v 124.512 h -124.5 z" /><path
         id="path246"
         style="fill:#e9e9e9;fill-opacity:1;fill-rule:nonzero;stroke:none"
         d="m 4739.09,0 h 124.512 V 124.512 H 4739.09 Z" /><path
         id="path248"
         style="fill:#e9e9e9;fill-opacity:1;fill-rule:nonzero;stroke:none"
         d="m 5087.68,0 h 124.492 V 124.512 H 5087.68 Z" /><path
         id="path250"
         style="fill:#e9e9e9;fill-opacity:1;fill-rule:nonzero;stroke:none"
         d="m 5261.99,0 h 124.5 v 124.512 h -124.5 z" /><path
         id="path252"
         style="fill:#e9e9e9;fill-opacity:1;fill-rule:nonzero;stroke:none"
         d="m 6482.06,0 h 124.512 V 124.512 H 6482.06 Z" /><path
         id="path254"
         style="fill:#e9e9e9;fill-opacity:1;fill-rule:nonzero;stroke:none"
         d="m 6656.38,1742.99 h 124.492 v 124.508 H 6656.38 Z" /><path
         id="path256"
         style="fill:#e9e9e9;fill-opacity:1;fill-rule:nonzero;stroke:none"
         d="m 4739.09,1394.4 h 124.512 v 124.488 H 4739.09 Z" /><path
         id="path258"
         style="fill:#e9e9e9;fill-opacity:1;fill-rule:nonzero;stroke:none"
         d="m 4913.38,1394.4 h 124.5 v 124.488 h -124.5 z" /><path
         id="path260"
         style="fill:#e9e9e9;fill-opacity:1;fill-rule:nonzero;stroke:none"
         d="m 5261.99,1394.4 h 124.5 v 124.488 h -124.5 z" /><path
         id="path262"
         style="fill:#e9e9e9;fill-opacity:1;fill-rule:nonzero;stroke:none"
         d="m 5436.29,1394.4 h 124.512 v 124.488 H 5436.29 Z" /><path
         id="path264"
         style="fill:#e9e9e9;fill-opacity:1;fill-rule:nonzero;stroke:none"
         d="m 5610.58,1394.4 h 124.5 v 124.488 h -124.5 z" /><path
         id="path266"
         style="fill:#e9e9e9;fill-opacity:1;fill-rule:nonzero;stroke:none"
         d="m 5784.88,1394.4 h 124.512 v 124.488 H 5784.88 Z" /><path
         id="path268"
         style="fill:#e9e9e9;fill-opacity:1;fill-rule:nonzero;stroke:none"
         d="m 5959.19,1394.4 h 124.5 v 124.488 h -124.5 z" /><path
         id="path270"
         style="fill:#e9e9e9;fill-opacity:1;fill-rule:nonzero;stroke:none"
         d="m 6133.47,1394.4 h 124.512 v 124.488 H 6133.47 Z" /><path
         id="path272"
         style="fill:#e9e9e9;fill-opacity:1;fill-rule:nonzero;stroke:none"
         d="m 6482.08,1394.4 h 124.508 v 124.488 H 6482.08 Z" /><path
         id="path274"
         style="fill:#e9e9e9;fill-opacity:1;fill-rule:nonzero;stroke:none"
         d="m 6656.37,1394.4 h 124.5 v 124.488 h -124.5 z" /><path
         id="path276"
         style="fill:#e9e9e9;fill-opacity:1;fill-rule:nonzero;stroke:none"
         d="m 6830.67,1394.4 h 124.508 v 124.488 H 6830.67 Z" /><path
         id="path278"
         style="fill:#e9e9e9;fill-opacity:1;fill-rule:nonzero;stroke:none"
         d="m 7004.97,1394.4 h 124.512 v 124.488 H 7004.97 Z" /><path
         id="path280"
         style="fill:#e9e9e9;fill-opacity:1;fill-rule:nonzero;stroke:none"
         d="m 7179.28,1394.4 h 124.508 v 124.488 H 7179.28 Z" /><path
         id="path282"
         style="fill:#e9e9e9;fill-opacity:1;fill-rule:nonzero;stroke:none"
         d="m 5087.68,1220.1 h 124.512 v 124.488 H 5087.68 Z" /><path
         id="path284"
         style="fill:#e9e9e9;fill-opacity:1;fill-rule:nonzero;stroke:none"
         d="m 5784.88,1220.1 h 124.512 v 124.488 H 5784.88 Z" /><path
         id="path286"
         style="fill:#e9e9e9;fill-opacity:1;fill-rule:nonzero;stroke:none"
         d="m 6482.08,1220.1 h 124.508 v 124.488 H 6482.08 Z" /><path
         id="path288"
         style="fill:#e9e9e9;fill-opacity:1;fill-rule:nonzero;stroke:none"
         d="m 6830.67,1220.1 h 124.508 v 124.488 H 6830.67 Z" /><path
         id="path290"
         style="fill:#e9e9e9;fill-opacity:1;fill-rule:nonzero;stroke:none"
         d="m 7179.28,1220.1 h 124.508 v 124.488 H 7179.28 Z" /><path
         id="path292"
         style="fill:#e9e9e9;fill-opacity:1;fill-rule:nonzero;stroke:none"
         d="m 4913.38,1045.79 h 124.5 v 124.488 h -124.5 z" /><path
         id="path294"
         style="fill:#e9e9e9;fill-opacity:1;fill-rule:nonzero;stroke:none"
         d="m 5610.58,1045.79 h 124.5 v 124.488 h -124.5 z" /><path
         id="path296"
         style="fill:#e9e9e9;fill-opacity:1;fill-rule:nonzero;stroke:none"
         d="m 5784.88,1045.79 h 124.512 v 124.488 H 5784.88 Z" /><path
         id="path298"
         style="fill:#e9e9e9;fill-opacity:1;fill-rule:nonzero;stroke:none"
         d="m 6133.47,1045.79 h 124.512 v 124.488 H 6133.47 Z" /><path
         id="path300"
         style="fill:#e9e9e9;fill-opacity:1;fill-rule:nonzero;stroke:none"
         d="m 6482.08,1045.79 h 124.508 v 124.488 H 6482.08 Z" /><path
         id="path302"
         style="fill:#e9e9e9;fill-opacity:1;fill-rule:nonzero;stroke:none"
         d="m 4913.38,871.508 h 124.5 v 124.488 h -124.5 z" /><path
         id="path304"
         style="fill:#e9e9e9;fill-opacity:1;fill-rule:nonzero;stroke:none"
         d="m 6307.78,871.508 h 124.5 v 124.488 h -124.5 z" /><path
         id="path306"
         style="fill:#e9e9e9;fill-opacity:1;fill-rule:nonzero;stroke:none"
         d="m 6482.08,871.508 h 124.508 V 995.996 H 6482.08 Z" /><path
         id="path308"
         style="fill:#e9e9e9;fill-opacity:1;fill-rule:nonzero;stroke:none"
         d="m 4564.79,697.199 h 124.5 v 124.492 h -124.5 z" /><path
         id="path310"
         style="fill:#e9e9e9;fill-opacity:1;fill-rule:nonzero;stroke:none"
         d="m 5436.29,697.199 h 124.512 V 821.691 H 5436.29 Z" /><path
         id="path312"
         style="fill:#e9e9e9;fill-opacity:1;fill-rule:nonzero;stroke:none"
         d="m 5784.88,697.199 h 124.512 V 821.691 H 5784.88 Z" /><path
         id="path314"
         style="fill:#e9e9e9;fill-opacity:1;fill-rule:nonzero;stroke:none"
         d="m 6133.47,697.199 h 124.512 V 821.691 H 6133.47 Z" /><path
         id="path316"
         style="fill:#e9e9e9;fill-opacity:1;fill-rule:nonzero;stroke:none"
         d="m 6307.78,697.199 h 124.5 v 124.492 h -124.5 z" /><path
         id="path318"
         style="fill:#e9e9e9;fill-opacity:1;fill-rule:nonzero;stroke:none"
         d="m 6482.08,697.199 h 124.508 V 821.691 H 6482.08 Z" /><path
         id="path320"
         style="fill:#e9e9e9;fill-opacity:1;fill-rule:nonzero;stroke:none"
         d="m 7179.28,697.199 h 124.508 V 821.691 H 7179.28 Z" /><path
         id="path322"
         style="fill:#e9e9e9;fill-opacity:1;fill-rule:nonzero;stroke:none"
         d="m 4564.79,522.898 h 124.5 V 647.39 h -124.5 z" /><path
         id="path324"
         style="fill:#e9e9e9;fill-opacity:1;fill-rule:nonzero;stroke:none"
         d="m 4913.38,522.898 h 124.5 V 647.39 h -124.5 z" /><path
         id="path326"
         style="fill:#e9e9e9;fill-opacity:1;fill-rule:nonzero;stroke:none"
         d="m 5087.68,522.898 h 124.512 V 647.39 H 5087.68 Z" /><path
         id="path328"
         style="fill:#e9e9e9;fill-opacity:1;fill-rule:nonzero;stroke:none"
         d="m 5784.88,522.898 h 124.512 V 647.39 H 5784.88 Z" /><path
         id="path330"
         style="fill:#e9e9e9;fill-opacity:1;fill-rule:nonzero;stroke:none"
         d="m 6482.08,522.898 h 124.508 V 647.39 H 6482.08 Z" /><path
         id="path332"
         style="fill:#e9e9e9;fill-opacity:1;fill-rule:nonzero;stroke:none"
         d="m 6830.67,522.898 h 124.508 V 647.39 H 6830.67 Z" /><path
         id="path334"
         style="fill:#e9e9e9;fill-opacity:1;fill-rule:nonzero;stroke:none"
         d="m 7179.28,522.898 h 124.508 V 647.39 H 7179.28 Z" /><path
         id="path336"
         style="fill:#e9e9e9;fill-opacity:1;fill-rule:nonzero;stroke:none"
         d="m 4913.38,348.59 h 124.5 v 124.488 h -124.5 z" /><path
         id="path338"
         style="fill:#e9e9e9;fill-opacity:1;fill-rule:nonzero;stroke:none"
         d="m 5261.99,348.59 h 124.5 v 124.488 h -124.5 z" /><path
         id="path340"
         style="fill:#e9e9e9;fill-opacity:1;fill-rule:nonzero;stroke:none"
         d="m 5436.29,348.59 h 124.512 V 473.078 H 5436.29 Z" /><path
         id="path342"
         style="fill:#e9e9e9;fill-opacity:1;fill-rule:nonzero;stroke:none"
         d="m 5610.58,348.59 h 124.5 v 124.488 h -124.5 z" /><path
         id="path344"
         style="fill:#e9e9e9;fill-opacity:1;fill-rule:nonzero;stroke:none"
         d="m 5784.88,348.59 h 124.512 V 473.078 H 5784.88 Z" /><path
         id="path346"
         style="fill:#e9e9e9;fill-opacity:1;fill-rule:nonzero;stroke:none"
         d="m 5959.19,348.59 h 124.5 v 124.488 h -124.5 z" /><path
         id="path348"
         style="fill:#e9e9e9;fill-opacity:1;fill-rule:nonzero;stroke:none"
         d="m 6133.47,348.59 h 124.512 V 473.078 H 6133.47 Z" /><path
         id="path350"
         style="fill:#e9e9e9;fill-opacity:1;fill-rule:nonzero;stroke:none"
         d="m 6307.78,348.59 h 124.5 v 124.488 h -124.5 z" /><path
         id="path352"
         style="fill:#e9e9e9;fill-opacity:1;fill-rule:nonzero;stroke:none"
         d="m 6656.37,348.59 h 124.5 v 124.488 h -124.5 z" /><path
         id="path354"
         style="fill:#e9e9e9;fill-opacity:1;fill-rule:nonzero;stroke:none"
         d="m 6830.67,348.59 h 124.508 V 473.078 H 6830.67 Z" /><path
         id="path356"
         style="fill:#e9e9e9;fill-opacity:1;fill-rule:nonzero;stroke:none"
         d="m 7179.28,348.59 h 124.508 V 473.078 H 7179.28 Z" /><path
         id="path358"
         style="fill:#e9e9e9;fill-opacity:1;fill-rule:nonzero;stroke:none"
         d="m 6307.78,174.309 h 124.5 v 124.492 h -124.5 z" /><path
         id="path360"
         style="fill:#e9e9e9;fill-opacity:1;fill-rule:nonzero;stroke:none"
         d="m 7179.28,0 h 124.488 V 124.512 H 7179.28 Z" /></g></g></svg>