<?xml version="1.0" encoding="UTF-8" standalone="no"?>
<svg
   xmlns:dc="http://purl.org/dc/elements/1.1/"
   xmlns:cc="http://creativecommons.org/ns#"
   xmlns:rdf="http://www.w3.org/1999/02/22-rdf-syntax-ns#"
   xmlns:svg="http://www.w3.org/2000/svg"
   xmlns="http://www.w3.org/2000/svg"
   viewBox="0 0 204.78751 324.46249"
   height="324.46249"
   width="204.78751"
   xml:space="preserve"
   version="1.1"
   id="svg2"><metadata
     id="metadata8"><rdf:RDF><cc:Work
         rdf:about=""><dc:format>image/svg+xml</dc:format><dc:type
           rdf:resource="http://purl.org/dc/dcmitype/StillImage" /></cc:Work></rdf:RDF></metadata><defs
     id="defs6" /><g
     transform="matrix(1.25,0,0,-1.25,0,324.4625)"
     id="g10"><g
       transform="scale(0.1,0.1)"
       id="g12"><path
         id="path14"
         style="fill:#868484;fill-opacity:1;fill-rule:nonzero;stroke:none"
         d="m 429.238,70.4492 -41.05,232.7808 238.273,42.04 6.977,-39.641 -184.079,-32.481 9.161,-51.976 107.476,18.949 6.984,-39.652 -107.472,-18.938 10.18,-57.711 184.019,32.461 7.731,-43.832 -238.2,-41.9998" /><path
         id="path16"
         style="fill:#868484;fill-opacity:1;fill-rule:nonzero;stroke:none"
         d="M 836.078,53.8086 717.66,169.23 C 723.406,136.66 745.906,8.83984 745.906,8.83984 L 695.699,0 l -41.043,232.781 43.379,7.66 131.891,-121.671 82.558,159.449 43.379,7.652 41.035,-232.7929 -50.214,-8.8593 c 0,0 -22.559,127.8012 -28.301,160.3902 l -71.805,-148.9293 -10.5,-1.8711" /><path
         id="path18"
         style="fill:#868484;fill-opacity:1;fill-rule:nonzero;stroke:none"
         d="m 985.863,167.059 -41.035,232.781 149.752,26.41 c 42.73,7.531 77.3,3.332 103.73,-12.602 26.56,-15.91 43.08,-42.207 49.57,-78.918 3.82,-21.73 2.8,-42.121 -3.07,-61.171 -5.91,-18.899 -16.13,-34.778 -30.66,-47.637 -9.02,-8.102 -20.82,-14.953 -35.43,-20.543 -14.5,-5.438 -33.48,-10.231 -56.98,-14.367 L 985.863,167.059 Z m 48.067,53.382 70.03,12.34 c 37.29,6.578 62.69,17.028 76.22,31.379 13.52,14.34 17.91,34.871 13.2,61.59 -4.2,23.801 -13.82,40.629 -28.89,50.539 -15.1,10.063 -35.27,12.871 -60.52,8.41 l -96.02,-16.937 25.98,-147.321" /><path
         id="path20"
         style="fill:#ba112b;fill-opacity:1;fill-rule:nonzero;stroke:none"
         d="M 774.441,474.859 892.855,359.43 c -5.742,32.59 -28.242,160.39 -28.242,160.39 l 50.215,8.86 41.047,-232.782 -43.391,-7.66 -131.879,121.672 -82.562,-159.449 -43.379,-7.652 -41.051,232.781 50.219,8.859 c 0,0 22.551,-127.789 28.301,-160.379 l 71.812,148.93 10.496,1.859" /><path
         id="path22"
         style="fill:#868484;fill-opacity:1;fill-rule:nonzero;stroke:none"
         d="M 78.0234,1724.7 0,2167.15 l 452.887,79.91 13.261,-75.34 -349.878,-61.74 17.414,-98.8 204.281,36.03 13.269,-75.36 -204.269,-36.01 19.348,-109.68 349.765,61.68 14.692,-83.3 -452.7466,-79.84" /><path
         id="path24"
         style="fill:#868484;fill-opacity:1;fill-rule:nonzero;stroke:none"
         d="m 851.313,1693.09 -225.079,219.38 c 10.922,-61.92 53.688,-304.86 53.688,-304.86 l -95.434,-16.81 -78.004,442.45 82.454,14.55 250.687,-231.26 156.914,303.08 82.451,14.53 78,-442.45 -95.45,-16.84 c 0,0 -42.87,242.9 -53.79,304.84 l -136.484,-283.06 -19.953,-3.55" /><path
         id="path26"
         style="fill:#868484;fill-opacity:1;fill-rule:nonzero;stroke:none"
         d="m 1136.01,1908.33 -78,442.46 284.63,50.19 c 81.22,14.31 146.94,6.32 197.16,-23.95 50.49,-30.24 81.89,-80.22 94.22,-149.99 7.27,-41.3 5.33,-80.06 -5.82,-116.27 -11.23,-35.92 -30.67,-66.12 -58.29,-90.55 -17.13,-15.4 -39.57,-28.42 -67.35,-39.05 -27.54,-10.35 -63.62,-19.44 -108.28,-27.31 l -258.27,-45.53 z m 91.36,101.46 133.1,23.46 c 70.89,12.51 119.15,32.37 144.89,59.64 25.68,27.27 34.03,66.29 25.08,117.07 -7.97,45.23 -26.27,77.23 -54.92,96.07 -28.69,19.12 -67.02,24.45 -115.03,15.99 l -182.49,-32.21 49.37,-280.02" /><path
         id="path28"
         style="fill:#ba112b;fill-opacity:1;fill-rule:nonzero;stroke:none"
         d="m 734.16,2493.38 225.074,-219.4 c -10.918,61.94 -53.683,304.86 -53.683,304.86 l 95.439,16.83 78.02,-442.44 -82.471,-14.57 -250.664,231.26 -156.93,-303.05 -82.453,-14.55 -78.019,442.45 95.449,16.83 c 0,0 42.859,-242.89 53.793,-304.83 l 136.496,283.08 19.949,3.53" /></g></g></svg>