<?xml version="1.0" encoding="utf-8"?>
<!-- Generator: Adobe Illustrator 18.1.1, SVG Export Plug-In . SVG Version: 6.00 Build 0)  -->
<svg version="1.1" id="Ebene_1" xmlns="http://www.w3.org/2000/svg" xmlns:xlink="http://www.w3.org/1999/xlink" x="0px" y="0px"
	 viewBox="0 0 310 62" enable-background="new 0 0 310 62" xml:space="preserve">
<g id="Layer_4_1_">
	<g>
		<path fill="#231F20" d="M42,47.9c0,4.7,1.6,9,4.1,12.1c2.5-3.2,4.1-7.4,4.1-12.1c0-4.7-1.6-9-4.1-12.2C43.6,38.9,42,43.1,42,47.9z
			"/>
		<path fill="#231F20" d="M0,47.9c0,4.7,1.6,9,4.1,12.1c2.5-3.2,4.1-7.4,4.1-12.1c0-4.7-1.6-9-4.1-12.2C1.6,38.9,0,43.1,0,47.9z"/>
		<g>
			<path fill="#231F20" d="M24.8,46.1c-12.7,0-23-10.3-23-23.1C1.9,10.3,12.2,0,24.8,0c12.7,0,23,10.3,23,23.1
				C47.8,35.8,37.5,46.1,24.8,46.1z M24.8,1.3c-12,0-21.7,9.8-21.7,21.8c0,12,9.7,21.8,21.7,21.8c12,0,21.7-9.8,21.7-21.8
				C46.5,11.1,36.8,1.3,24.8,1.3z"/>
		</g>
		<path fill="#231F20" d="M24.6,0.6c-10.4,0-19.1,7.2-22,17h15.6c3.9-2.2,9.9-8.8,12.6-8.8c6.1-0.1,9.2,5.4,9.2,5.4l6.8,8.4l0.6-0.1
			C46.4,10.2,36.6,0.6,24.6,0.6z"/>
		<rect x="48" y="21.1" fill="#231F20" width="3.8" height="8.3"/>
		<g>
			<polygon fill="#B33E2C" points="25.3,17.6 25.3,21.3 25.3,29.6 29.2,29.6 29.2,21.3 41.9,21.3 41.9,29.6 45.7,29.6 45.7,21.3 
				49.5,21.3 49.5,17.6 			"/>
			<rect x="29.2" y="29.6" fill="#B33E2C" width="12.7" height="4.2"/>
		</g>
		<g>
			<polygon fill="#FF7756" points="1.1,17.6 1.1,21.3 1.1,29.6 5,29.6 5,21.3 17.7,21.3 17.7,29.6 21.5,29.6 21.5,21.3 25.3,21.3 
				25.3,17.6 			"/>
			<rect x="5" y="29.6" fill="#FF7756" width="12.7" height="4.2"/>
		</g>
		<g>
			<rect x="42.4" y="34.5" fill="#FF7756" width="1.6" height="3.8"/>
			<rect x="44" y="38.3" fill="#FF7756" width="4.3" height="2.1"/>
			<rect x="48.3" y="34.5" fill="#FF7756" width="1.6" height="3.8"/>
		</g>
	</g>
</g>
<g>
	<g>
		<path fill="#FF7756" d="M72.4,50.3v7.4h-2.6v-7.3H65v7.3h-2.6V44.6H65v3.2h4.9C71.3,47.9,72.4,49,72.4,50.3z"/>
		<path fill="#FF7756" d="M83.7,50.3v7.4h-7.5c-1.4,0-2.5-1.1-2.5-2.5v-3.8h7.4v-1h-7.4v-2.6h7.5C82.6,47.9,83.7,49,83.7,50.3z
			 M81.1,53.8h-4.8v1.4h4.8V53.8z"/>
		<path fill="#FF7756" d="M87.5,50.5v4.7h7.4v2.6h-7.5c-1.3,0-2.5-1.1-2.5-2.5v-4.9c0-1.3,1.1-2.5,2.5-2.5h7.5v2.6H87.5z"/>
		<path fill="#FF7756" d="M106.2,47.9v0.9l-3.7,4l3.7,4v0.9h-2.6l-3.3-3.6h-1.3v3.6h-2.6V44.6h2.6v6.9h1.3l3.3-3.6H106.2z"/>
		<path fill="#FF7756" d="M114,44.6v10.5h2v2.6h-2.1c-1.3,0-2.5-1.1-2.5-2.5V44.6H114z"/>
		<path fill="#FF7756" d="M120.3,44.6v2.6h-2.6v-2.6H120.3z M117.7,47.9h2.6v9.9h-2.6V47.9z"/>
		<path fill="#FF7756" d="M131.7,47.9v0.9l-3.7,4l3.7,4v0.9H129l-3.3-3.6h-1.3v3.6h-2.6V44.6h2.6v6.9h1.3l3.3-3.6H131.7z"/>
		<path fill="#FF7756" d="M142.7,50.3v3.8h-7.4v1h7.4v2.6h-7.5c-1.3,0-2.5-1.1-2.5-2.5v-4.9c0-1.3,1.1-2.5,2.5-2.5h5.1
			C141.6,47.9,142.7,49,142.7,50.3z M140.1,51.8v-1.4h-4.8v1.4H140.1z"/>
		<path fill="#FF7756" d="M158.7,50.3v7.4h-7.5c-1.4,0-2.5-1.1-2.5-2.5v-3.8h7.4v-1h-7.4v-2.6h7.5C157.6,47.9,158.7,49,158.7,50.3z
			 M156.1,53.8h-4.8v1.4h4.8V53.8z"/>
		<path fill="#FF7756" d="M172,61.6h-6V59h5.8v-1.3H167c-1.4,0-2.5-1.1-2.5-2.5v-4.9c0-1.3,1.1-2.5,2.5-2.5h5.1
			c1.4,0,2.5,1.1,2.5,2.5v8.8C174.5,60.5,173.4,61.6,172,61.6z M167.1,55.1h4.8v-4.7h-4.8V55.1z"/>
		<path fill="#FF7756" d="M178.9,44.6v2.6h-2.6v-2.6H178.9z M176.3,47.9h2.6v9.9h-2.6V47.9z"/>
		<path fill="#FF7756" d="M188.6,47.9v2.6h-5.3v7.3h-2.6v-7.4c0-1.3,1.1-2.5,2.5-2.5H188.6z"/>
		<path fill="#FF7756" d="M192.4,44.6v10.5h2v2.6h-2.1c-1.3,0-2.5-1.1-2.5-2.5V44.6H192.4z"/>
	</g>
	<g>
		<path fill="#231F20" d="M71.7,16.1c2.7,0,5.4,0.6,8,1.8v3.9c-2.6-1.3-5.2-2-7.8-2c-1.6,0-3,0.3-4.2,1c-1.2,0.6-2.2,1.5-2.9,2.7
			c-0.7,1.2-1,2.5-1,4c0,2.2,0.7,4,2.2,5.4c1.5,1.4,3.4,2,5.9,2c0.7,0,1.3-0.1,1.9-0.2c0.6-0.1,1.3-0.3,2.2-0.7v-3.6h-3.6v-3.3h7.8
			v9c-1.1,0.8-2.4,1.3-3.9,1.8c-1.5,0.4-3.1,0.6-4.7,0.6c-2.3,0-4.4-0.5-6.3-1.4c-1.9-0.9-3.3-2.3-4.4-4c-1-1.7-1.6-3.6-1.6-5.7
			c0-2.1,0.5-4.1,1.6-5.8c1.1-1.7,2.5-3.1,4.4-4C67.2,16.6,69.4,16.1,71.7,16.1z"/>
		<path fill="#231F20" d="M89.9,23.4c2.1,0,3.8,0.7,5.1,2.1s1.9,3.3,1.9,5.7v0.6H86.5c0.2,1.3,0.6,2.3,1.5,3
			c0.8,0.7,1.9,1.1,3.4,1.1c0.9,0,1.8-0.2,2.6-0.5c0.8-0.3,1.7-0.8,2.6-1.4v2.9c-1.7,1.2-3.8,1.8-6.2,1.8c-2.3,0-4.2-0.7-5.6-2.1
			c-1.5-1.4-2.2-3.2-2.2-5.5c0-2.2,0.7-4,2-5.4C85.9,24.1,87.7,23.4,89.9,23.4z M93.2,29.4c-0.1-1.1-0.4-1.9-1-2.5
			C91.7,26.3,91,26,90,26c-1,0-1.7,0.3-2.3,0.9c-0.6,0.6-1,1.4-1.1,2.5H93.2z"/>
		<path fill="#231F20" d="M105.6,23.4c2.1,0,3.8,0.7,5.1,2.1s1.9,3.3,1.9,5.7v0.6h-10.3c0.2,1.3,0.6,2.3,1.5,3
			c0.8,0.7,1.9,1.1,3.4,1.1c0.9,0,1.8-0.2,2.6-0.5c0.8-0.3,1.7-0.8,2.6-1.4v2.9c-1.7,1.2-3.8,1.8-6.2,1.8c-2.3,0-4.2-0.7-5.6-2.1
			c-1.5-1.4-2.2-3.2-2.2-5.5c0-2.2,0.7-4,2-5.4C101.7,24.1,103.4,23.4,105.6,23.4z M108.9,29.4c-0.1-1.1-0.4-1.9-1-2.5
			c-0.5-0.6-1.3-0.9-2.2-0.9c-1,0-1.7,0.3-2.3,0.9c-0.6,0.6-1,1.4-1.1,2.5H108.9z"/>
		<path fill="#231F20" d="M118.6,16.4v21.8h-3.8V16.4H118.6z M129.2,23.6l-5.9,7.2l6.7,7.4h-4.9l-6.4-7.4l6-7.2H129.2z"/>
		<path fill="#231F20" d="M150.6,16.1c2.7,0,5.4,0.6,8,1.8v3.9c-2.6-1.3-5.2-2-7.8-2c-1.6,0-3,0.3-4.2,1c-1.2,0.6-2.2,1.5-2.9,2.7
			c-0.7,1.2-1,2.5-1,4c0,2.2,0.7,4,2.2,5.4c1.5,1.4,3.4,2,5.9,2c0.7,0,1.3-0.1,1.9-0.2c0.6-0.1,1.3-0.3,2.2-0.7v-3.6h-3.6v-3.3h7.8
			v9c-1.1,0.8-2.4,1.3-3.9,1.8c-1.5,0.4-3.1,0.6-4.7,0.6c-2.3,0-4.4-0.5-6.3-1.4c-1.9-0.9-3.3-2.3-4.4-4c-1-1.7-1.6-3.6-1.6-5.7
			c0-2.1,0.5-4.1,1.6-5.8c1.1-1.7,2.5-3.1,4.4-4C146.1,16.6,148.2,16.1,150.6,16.1z"/>
		<path fill="#231F20" d="M164.3,16.9c0.6,0,1.1,0.2,1.5,0.6c0.4,0.4,0.6,0.9,0.6,1.5c0,0.6-0.2,1.1-0.6,1.5
			c-0.4,0.4-0.9,0.7-1.5,0.7c-0.6,0-1.1-0.2-1.5-0.7c-0.4-0.4-0.6-1-0.6-1.5c0-0.6,0.2-1.1,0.7-1.5S163.7,16.9,164.3,16.9z
			 M166.2,23.6v14.6h-3.8V23.6H166.2z"/>
		<path fill="#231F20" d="M177.7,23.4c0.5,0,1,0.1,1.5,0.3c0.5,0.2,1.1,0.6,1.7,1.2l-1.4,3.4c-1.1-0.8-2-1.2-2.7-1.2
			c-0.6,0-1.2,0.2-1.8,0.7c-0.6,0.4-1,1-1.4,1.8c-0.3,0.7-0.5,1.5-0.5,2.2v6.7h-3.8V23.6h3.8v3.7h0.1c0.7-1.4,1.4-2.4,2.1-3.1
			C176.1,23.7,176.9,23.4,177.7,23.4z"/>
		<path fill="#231F20" d="M185.9,16.4v21.8h-3.8V16.4H185.9z"/>
		<path fill="#231F20" d="M193.8,23.4c0.8,0,1.6,0.1,2.3,0.3c0.7,0.2,1.5,0.5,2.2,0.9v3.1c-0.7-0.5-1.5-0.8-2.3-1.1
			c-0.8-0.3-1.6-0.4-2.2-0.4c-0.6,0-1,0.1-1.3,0.3c-0.3,0.2-0.5,0.5-0.5,0.9c0,0.2,0.1,0.4,0.4,0.7c0.3,0.2,1,0.6,2.1,1.2
			c1.7,0.8,2.8,1.6,3.5,2.3c0.7,0.7,1,1.6,1,2.6c0,1.4-0.5,2.5-1.5,3.3c-1,0.8-2.3,1.2-4,1.2c-1,0-2-0.1-2.9-0.3
			c-0.9-0.2-1.6-0.5-2.2-0.8v-3.2c1.9,1,3.5,1.6,4.7,1.6c0.7,0,1.2-0.1,1.6-0.4c0.4-0.2,0.6-0.5,0.6-0.9c0-0.2-0.1-0.4-0.2-0.6
			c-0.1-0.2-0.4-0.4-0.7-0.6c-0.3-0.2-1.2-0.7-2.7-1.4c-1.2-0.6-2-1.2-2.6-1.8c-0.6-0.7-0.8-1.4-0.8-2.4c0-1.3,0.5-2.3,1.5-3.1
			C190.8,23.8,192.2,23.4,193.8,23.4z"/>
		<path fill="#231F20" d="M221.2,16.1c1.2,0,2.5,0.1,3.6,0.4c1.2,0.3,2.5,0.8,3.8,1.4v4c-1.3-0.8-2.6-1.3-3.7-1.7
			c-1.1-0.3-2.3-0.5-3.6-0.5c-1.6,0-3,0.3-4.2,1c-1.2,0.6-2.2,1.5-2.9,2.7c-0.7,1.2-1,2.5-1,3.9c0,1.5,0.3,2.8,1,3.9
			c0.7,1.2,1.7,2,2.9,2.7c1.2,0.6,2.7,0.9,4.2,0.9c1.2,0,2.3-0.2,3.4-0.5c1.1-0.3,2.5-1,4.1-1.9v4c-1.4,0.7-2.7,1.3-3.9,1.6
			s-2.6,0.5-4.2,0.5c-2.3,0-4.4-0.5-6.2-1.4c-1.8-0.9-3.2-2.2-4.3-4c-1-1.7-1.6-3.6-1.6-5.7c0-2.2,0.5-4.2,1.6-5.9
			c1.1-1.8,2.5-3.1,4.4-4C216.8,16.6,218.9,16.1,221.2,16.1z"/>
		<path fill="#231F20" d="M236.9,23.4c1.9,0,3.3,0.4,4.3,1.2c1,0.8,1.5,1.9,1.5,3.3V35c0,0.6,0.2,0.8,0.7,0.8c0.2,0,0.5-0.1,0.8-0.2
			c0.3-0.2,0.6-0.3,0.9-0.6v2.2c-1.3,0.8-2.6,1.2-3.7,1.2c-0.7,0-1.2-0.1-1.6-0.3c-0.4-0.2-0.6-0.6-0.8-1.2c-1.5,1-2.9,1.6-4.4,1.6
			c-1.1,0-2-0.4-2.7-1.1c-0.8-0.7-1.1-1.6-1.1-2.5c0-1.3,0.4-2.3,1.1-3c0.8-0.7,2.1-1.4,3.9-1.9l3.1-0.9v-0.7c0-1.4-0.9-2.1-2.6-2.1
			c-0.9,0-1.8,0.2-2.6,0.6c-0.9,0.4-1.7,1-2.4,1.8v-3.5C232.9,24,234.8,23.4,236.9,23.4z M234.6,34.3c0,0.5,0.2,1,0.5,1.3
			c0.3,0.3,0.8,0.5,1.3,0.5c0.8,0,1.7-0.4,2.5-1.2v-3.8c-1.1,0.4-1.9,0.7-2.5,1c-0.6,0.3-1.1,0.7-1.3,1
			C234.7,33.4,234.6,33.9,234.6,34.3z"/>
		<path fill="#231F20" d="M254.7,23.4c0.5,0,1,0.1,1.5,0.3c0.5,0.2,1.1,0.6,1.7,1.2l-1.4,3.4c-1.1-0.8-2-1.2-2.7-1.2
			c-0.6,0-1.2,0.2-1.8,0.7c-0.6,0.4-1,1-1.4,1.8c-0.3,0.7-0.5,1.5-0.5,2.2v6.7h-3.8V23.6h3.8v3.7h0.1c0.7-1.4,1.4-2.4,2.1-3.1
			C253.1,23.7,253.8,23.4,254.7,23.4z"/>
		<path fill="#231F20" d="M267.3,23.4c0.5,0,1,0.1,1.5,0.3c0.5,0.2,1.1,0.6,1.7,1.2l-1.4,3.4c-1.1-0.8-2-1.2-2.7-1.2
			c-0.6,0-1.2,0.2-1.8,0.7c-0.6,0.4-1,1-1.4,1.8c-0.3,0.7-0.5,1.5-0.5,2.2v6.7h-3.8V23.6h3.8v3.7h0.1c0.7-1.4,1.4-2.4,2.1-3.1
			C265.6,23.7,266.4,23.4,267.3,23.4z"/>
		<path fill="#231F20" d="M278.7,23.4c1.5,0,2.9,0.3,4.1,1c1.2,0.6,2.2,1.5,2.9,2.7c0.7,1.1,1,2.4,1,3.9c0,1.5-0.3,2.8-1,4
			c-0.7,1.1-1.6,2-2.9,2.7c-1.3,0.7-2.7,1-4.2,1c-1.5,0-2.9-0.3-4.2-1c-1.2-0.7-2.2-1.6-2.9-2.7c-0.7-1.1-1-2.5-1-4
			c0-1.5,0.3-2.8,1-3.9s1.6-2,2.9-2.7C275.9,23.7,277.2,23.4,278.7,23.4z M274.8,30.9c0,1.5,0.4,2.6,1.1,3.5
			c0.7,0.9,1.7,1.3,2.9,1.3c1.2,0,2.2-0.4,3-1.2c0.7-0.8,1.1-2,1.1-3.6c0-1.5-0.4-2.6-1.1-3.4c-0.7-0.8-1.7-1.2-2.9-1.2
			c-1.2,0-2.1,0.4-2.8,1.3C275.1,28.3,274.8,29.5,274.8,30.9z"/>
		<path fill="#231F20" d="M293,19.8h0.3v3.9h5v2.9h-5v6.7c0,0.7,0.2,1.2,0.6,1.6c0.4,0.4,0.9,0.6,1.6,0.6c0.9,0,1.9-0.3,3.1-1v3.1
			c-1.4,0.6-2.7,0.9-3.9,0.9c-1.6,0-2.9-0.4-3.9-1.3c-0.9-0.9-1.4-2.1-1.4-3.6v-7h-2.3v-0.6L293,19.8z"/>
		<path fill="#231F20" d="M304.8,23.4c0.8,0,1.6,0.1,2.3,0.3c0.7,0.2,1.5,0.5,2.2,0.9v3.1c-0.7-0.5-1.5-0.8-2.3-1.1
			c-0.8-0.3-1.6-0.4-2.2-0.4c-0.6,0-1,0.1-1.3,0.3c-0.3,0.2-0.5,0.5-0.5,0.9c0,0.2,0.1,0.4,0.4,0.7c0.3,0.2,1,0.6,2.1,1.2
			c1.7,0.8,2.8,1.6,3.5,2.3c0.7,0.7,1,1.6,1,2.6c0,1.4-0.5,2.5-1.5,3.3c-1,0.8-2.3,1.2-4,1.2c-1,0-2-0.1-2.9-0.3
			c-0.9-0.2-1.6-0.5-2.2-0.8v-3.2c1.9,1,3.5,1.6,4.7,1.6c0.7,0,1.2-0.1,1.6-0.4c0.4-0.2,0.6-0.5,0.6-0.9c0-0.2-0.1-0.4-0.2-0.6
			c-0.1-0.2-0.4-0.4-0.7-0.6c-0.3-0.2-1.2-0.7-2.7-1.4c-1.2-0.6-2-1.2-2.6-1.8c-0.6-0.7-0.8-1.4-0.8-2.4c0-1.3,0.5-2.3,1.5-3.1
			C301.8,23.8,303.1,23.4,304.8,23.4z"/>
	</g>
</g>
</svg>
