<?xml version="1.0" encoding="UTF-8" standalone="no"?>
<svg
   xmlns:dc="http://purl.org/dc/elements/1.1/"
   xmlns:cc="http://creativecommons.org/ns#"
   xmlns:rdf="http://www.w3.org/1999/02/22-rdf-syntax-ns#"
   xmlns:svg="http://www.w3.org/2000/svg"
   xmlns="http://www.w3.org/2000/svg"
   viewBox="0 0 290 50"
   height="50"
   width="290"
   xml:space="preserve"
   version="1.1"
   id="svg2"><metadata
     id="metadata8"><rdf:RDF><cc:Work
         rdf:about=""><dc:format>image/svg+xml</dc:format><dc:type
           rdf:resource="http://purl.org/dc/dcmitype/StillImage" /></cc:Work></rdf:RDF></metadata><defs
     id="defs6" /><g
     transform="matrix(1.25,0,0,-1.25,0,50)"
     id="g10"><g
       transform="scale(0.1,0.1)"
       id="g12"><path
         id="path14"
         style="fill:#040606;fill-opacity:1;fill-rule:nonzero;stroke:none"
         d="m 648.824,230.719 c -1.793,37.183 -19.758,59.074 -52.086,59.074 -18.258,0 -33.523,-6 -45.797,-23.09 -11.972,-16.492 -17.664,-40.484 -17.664,-67.769 0,-24.891 5.692,-48.278 16.168,-63.571 12.274,-18.59 28.735,-26.09 49.09,-26.09 19.758,0 31.133,6.899 32.328,17.692 1.2,9 1.2,26.09 1.2,38.984 0,16.789 -1.797,18.891 -17.063,20.09 l -15.266,1.199 -0.3,8.399 c 9.879,0 32.031,-0.903 44.902,-0.903 12.875,0 28.137,0.602 35.922,0.903 l 0,-8.098 c -15.567,-2.398 -17.961,-3.301 -18.559,-10.496 -1.199,-12.293 -0.601,-23.09 -0.601,-32.086 0.3,-15.289 0.898,-23.687 2.093,-30.586 -6.878,-1.5 -21.25,-6.297 -29.632,-8.394 -10.477,-3 -25.141,-5.9965 -39.813,-5.9965 -36.223,0 -59.269,9.5895 -75.433,30.2855 -12.575,16.191 -19.161,39.582 -19.161,67.168 0,39.882 16.168,71.07 44.602,87.859 16.168,9.895 32.633,13.492 53.289,13.492 27.238,0 44.297,-9.293 51.184,-16.187 l 6.289,14.992 7.183,-2.402 c -2.394,-10.493 -5.691,-42.278 -4.488,-64.469 l -8.387,0" /><path
         id="path16"
         style="fill:#040606;fill-opacity:1;fill-rule:nonzero;stroke:none"
         d="m 869.898,161.152 c -2.093,-13.496 -5.085,-38.683 -6.882,-57.875 -5.387,0.602 -18.86,0.899 -36.223,1.2 -17.363,0 -39.813,0.3 -61.965,0.3 -13.168,0 -36.519,-0.898 -44.004,-0.898 l 0,8.394 17.063,1.801 c 6.59,0.598 8.683,2.395 9.281,7.196 0.898,9.593 1.496,29.085 1.496,53.976 l 0,63.867 c 0,23.692 -0.301,32.989 -0.598,39.285 0,4.797 -2.097,6.297 -8.382,6.895 l -15.567,1.199 0.301,8.399 c 8.082,0 28.141,-0.899 38.914,-0.899 10.477,0 23.648,0.899 40.414,0.899 l 0.899,-8.399 -16.762,-1.496 c -6.289,-0.601 -8.086,-2.398 -8.387,-7.797 C 778.602,266.102 778,250.512 778,227.723 l 0,-53.078 c 0,-24.887 0.297,-47.977 0.898,-55.778 0.301,-3.297 2.395,-5.097 21.852,-5.097 31.43,0 41.012,2.101 47.297,11.996 5.984,8.699 10.176,21.289 13.769,35.683 l 8.082,-0.297" /><path
         id="path18"
         style="fill:#040606;fill-opacity:1;fill-rule:nonzero;stroke:none"
         d="m 968.262,267.004 c -7.785,-13.195 -13.774,-36.285 -13.774,-65.668 0,-29.391 6.887,-54.879 15.567,-68.973 10.179,-16.191 24.25,-23.09 40.715,-23.09 15.26,0 28.73,5.997 38.61,22.493 7.78,13.492 12.87,38.082 12.87,66.871 0,27.886 -5.09,52.172 -13.77,67.765 -8.98,15.293 -22.15,23.688 -40.11,23.688 -16.761,0 -30.53,-7.797 -40.108,-23.086 z m 128.118,-64.473 c 0,-68.668 -35.92,-102.5505 -88.01,-102.5505 -52.382,0 -88.003,34.4845 -88.003,97.7535 0,55.176 31.133,101.051 90.103,101.051 55.68,0 85.91,-43.476 85.91,-96.254" /><path
         id="path20"
         style="fill:#040606;fill-opacity:1;fill-rule:nonzero;stroke:none"
         d="m 1161.89,167.449 c -1.2,-37.484 15.26,-57.879 46.1,-57.879 20.05,0 37.41,11.098 37.41,35.989 0,12.593 -5.09,21.89 -16.46,28.484 -8.98,5.402 -32.33,16.797 -46.1,24.594 -20.35,11.394 -28.14,27.582 -28.14,46.476 0,32.985 23.95,53.672 58.37,53.672 17.07,0 32.03,-5.394 38.92,-11.988 l 5.09,13.191 7.48,-1.8 c -4.19,-23.387 -4.79,-47.079 -4.79,-57.875 l -8.38,-0.899 c 0.3,34.484 -17.36,50.078 -39.21,50.078 -19.76,0 -32.03,-13.191 -32.03,-33.883 0,-13.496 5.68,-23.992 20.65,-32.086 21.85,-11.695 37.42,-18.894 48.2,-26.089 15.56,-8.395 23.64,-20.688 23.64,-40.481 0,-38.383 -31.13,-56.9725 -69.45,-56.9725 -18.26,0 -39.51,5.9965 -51.78,11.6955 1.8,16.789 2.09,38.679 2.39,53.972 l 8.09,1.801" /><path
         id="path22"
         style="fill:#040606;fill-opacity:1;fill-rule:nonzero;stroke:none"
         d="m 1337.27,167.449 c -1.2,-37.484 15.26,-57.879 46.1,-57.879 20.05,0 37.42,11.098 37.42,35.989 0,12.593 -5.09,21.89 -16.47,28.484 -8.98,5.402 -32.33,16.797 -46.1,24.594 -20.35,11.394 -28.13,27.582 -28.13,46.476 0,32.985 23.94,53.672 58.37,53.672 17.06,0 32.02,-5.394 38.91,-11.988 l 5.09,13.191 7.48,-1.8 c -4.19,-23.387 -4.79,-47.079 -4.79,-57.875 l -8.38,-0.899 c 0.3,34.484 -17.36,50.078 -39.21,50.078 -19.76,0 -32.03,-13.191 -32.03,-33.883 0,-13.496 5.69,-23.992 20.66,-32.086 21.85,-11.695 37.41,-18.894 48.19,-26.089 15.56,-8.395 23.65,-20.688 23.65,-40.481 0,-38.383 -31.14,-56.9725 -69.45,-56.9725 -18.26,0 -39.51,5.9965 -51.79,11.6955 1.8,16.789 2.1,38.679 2.4,53.972 l 8.08,1.801" /><path
         id="path24"
         style="fill:#040606;fill-opacity:1;fill-rule:nonzero;stroke:none"
         d="m 1626.1,103.879 c -18.56,0 -32.93,0.898 -49.09,0.898 -15.27,0 -28.44,-0.898 -42.8,-0.898 l -0.9,8.394 c 6.88,0.598 14.07,1.497 20.35,2.399 7.49,0.598 10.48,3.297 10.78,10.195 0.9,10.496 1.49,40.481 1.49,56.973 0,5.699 -1.19,9.898 -3.59,14.996 -5.69,12.293 -31.13,56.074 -43.4,75.266 -7.79,12.593 -11.98,14.093 -28.74,14.695 l -0.3,8.094 c 5.69,0 21.85,-0.899 35.32,-0.899 16.47,0 29.34,0.899 39.52,0.899 l 1.19,-8.094 -13.17,-1.504 c -4.49,-0.297 -5.09,-2.098 -2.99,-6.297 6.59,-14.394 27.84,-52.777 40.71,-76.168 20.66,36.887 31.73,59.375 37.72,73.168 2.69,6.297 1.8,8.399 -2.4,8.699 -5.08,0.899 -10.47,1.5 -16.76,1.797 l 0.9,8.399 c 6.89,0 20.65,-0.899 31.13,-0.899 8.98,0 19.16,0.899 29.34,0.899 l 0.6,-8.399 c -17.37,-0.597 -21.56,-2.996 -29.64,-14.691 -10.78,-15.895 -30.83,-51.278 -42.21,-72.867 -2.69,-5.098 -3.59,-9.594 -3.59,-14.696 -0.3,-17.39 -0.3,-50.074 0.9,-63.269 0.6,-4.196 1.79,-5.996 7.48,-6.598 4.49,-0.297 11.38,-1.195 20.96,-2.098 l 1.19,-8.394" /><path
         id="path26"
         style="fill:#040606;fill-opacity:1;fill-rule:nonzero;stroke:none"
         d="m 1768.21,159.051 c 0,-19.488 0.3,-30.883 0.9,-40.781 0.3,-3.297 3.29,-5.094 15.26,-5.094 24.25,0 37.12,6.594 43.71,16.187 4.79,7.196 7.18,17.996 7.18,30.289 0,13.493 -2.69,22.188 -8.98,29.387 -7.18,7.496 -19.76,12.594 -43.11,12.594 -5.98,0 -11.67,-0.297 -14.96,-0.899 l 0,-41.683 z m 0,51.277 c 3.59,-0.297 8.98,-0.297 14.96,-0.297 26.65,0 42.21,9.594 42.21,40.18 0,10.191 -2.09,18.293 -5.69,23.687 -4.78,7.2 -13.17,11.997 -32.32,11.997 -15.57,0 -17.96,-1.797 -17.96,-5.7 -0.6,-8.695 -1.2,-19.488 -1.2,-35.382 l 0,-34.485 z m -55.08,-98.055 c 19.76,0.903 24.25,2.098 24.55,7.497 0.59,9.296 1.19,23.089 1.19,41.382 l 0,79.161 c 0,18.894 0,29.089 -0.9,39.281 -0.29,4.199 -5.08,6 -24.54,6.898 l 0,8.399 c 9.58,0 22.45,-0.899 36.52,-0.899 14.07,0 31.13,0.899 46.99,0.899 27.55,0 39.52,-3.598 48.5,-11.996 7.78,-6.899 11.67,-17.692 11.67,-29.383 0,-23.094 -13.17,-33.887 -24.54,-39.285 -6.59,-3 -12.88,-4.5 -20.06,-6.297 l 0,-1.2 c 16.76,-2.101 30.53,-5.394 40.11,-11.996 9.88,-6.593 16.77,-17.089 16.77,-35.683 0,-19.488 -8.38,-32.985 -23.65,-42.879 -14.07,-9.297 -35.32,-11.996 -56.58,-11.996 -13.17,0 -26.94,0.601 -40.11,0.601 -8.38,0 -26.04,-0.601 -36.22,-0.898 l 0.3,8.394" /><path
         id="path28"
         style="fill:#040606;fill-opacity:1;fill-rule:nonzero;stroke:none"
         d="m 1971.53,267.004 c -7.79,-13.195 -13.77,-36.285 -13.77,-65.668 0,-29.391 6.88,-54.879 15.56,-68.973 10.18,-16.191 24.25,-23.09 40.71,-23.09 15.27,0 28.74,5.997 38.62,22.493 7.78,13.492 12.87,38.082 12.87,66.871 0,27.886 -5.09,52.172 -13.77,67.765 -8.98,15.293 -22.15,23.688 -40.11,23.688 -16.76,0 -30.53,-7.797 -40.11,-23.086 z m 128.11,-64.473 c 0,-68.668 -35.92,-102.5505 -88,-102.5505 -52.39,0 -88.01,34.4845 -88.01,97.7535 0,55.176 31.13,101.051 90.11,101.051 55.67,0 85.9,-43.476 85.9,-96.254" /><path
         id="path30"
         style="fill:#040606;fill-opacity:1;fill-rule:nonzero;stroke:none"
         d="m 2138.59,294.891 c 8.99,0 25.45,-0.899 38.02,-0.899 11.98,0 24.55,0.899 38.62,0.899 l 1.49,-8.399 -14.06,-1.797 c -4.2,-0.3 -5.09,-2.402 -3.3,-6 5.09,-8.996 11.38,-21.586 32.03,-56.672 17.66,26.086 28.44,43.481 33.83,53.973 3.29,6.602 2.09,8.102 -4.79,9 l -13.77,1.496 1.8,8.399 c 11.07,0 23.64,-0.899 30.83,-0.899 13.17,0 23.95,0.899 33.82,0.899 l 1.2,-8.399 c -22.75,-1.496 -26.94,-3.894 -37.12,-16.492 -6.88,-8.098 -18.86,-24.59 -40.41,-56.676 29.64,-53.07 45.5,-78.261 52.39,-89.058 4.79,-6.594 9.57,-10.192 19.45,-11.09 l 11.38,-0.903 0,-8.394 c -7.78,0 -23.35,0.898 -38.32,0.898 -14.96,0 -28.73,-0.898 -41.9,-0.898 l -0.6,8.394 c 17.06,1.497 18.86,3.297 16.16,8.696 -5.69,10.496 -12.27,21.89 -38.62,69.566 -15.26,-24.289 -30.23,-48.574 -36.81,-62.07 -5.09,-9.895 -3.9,-13.793 5.68,-14.695 l 14.67,-1.497 1.5,-8.394 c -8.38,0 -20.36,0.898 -35.33,0.898 -15.26,0 -23.34,-0.898 -35.02,-0.898 l -1.19,8.394 c 15.26,1.2 22.15,3.297 30.53,13.493 8.38,10.199 32.63,46.179 50.59,74.066 -28.74,51.277 -40.11,70.168 -44.91,77.066 -5.08,7.2 -11.07,8.997 -27.24,9.594 l -0.6,8.399" /><path
         id="path32"
         style="fill:#040606;fill-opacity:1;fill-rule:nonzero;stroke:none"
         d="m 215.629,135.859 c -0.621,-12.484 31.031,-2.777 34.801,-0.195 -6.821,5.488 -34.227,11.809 -34.801,0.195" /><path
         id="path34"
         style="fill:#040606;fill-opacity:1;fill-rule:nonzero;stroke:none"
         d="m 272.668,232.422 c 3.531,-59.809 -29.137,-86.289 -41.098,-84.039 -5.375,1.023 -7.648,9.308 -7.515,15.547 0.152,6.226 2.375,17.593 6.808,27.867 5.032,11.683 17.789,29.187 31.075,39.828 -2.922,19.035 -22.708,49.523 -54.2,6.07 19.336,-38.187 15.836,-85.175 -3.675,-84.804 -19.508,0.355 -23.024,46.617 -3.696,84.804 -31.492,43.453 -51.277,12.965 -54.187,-6.07 13.285,-10.641 26.035,-28.145 31.074,-39.828 4.434,-10.274 6.652,-21.641 6.797,-27.867 0.144,-6.239 -2.129,-14.524 -7.516,-15.547 -11.949,-2.25 -44.621,24.23 -41.086,84.039 -50.0701,23.238 -31.82,-58.649 18.043,-94.414 30.879,16.48 47.09,4.426 47.231,-3.172 0.144,-7.609 -12.657,-19.457 -47.907,-2.676 -14.714,-12.328 6.239,-26.801 52.641,-26.871 l 0.254,0 c 46.402,0.07 64.297,14.543 49.578,26.871 -35.238,-16.781 -48.043,-4.933 -47.898,2.676 0.144,7.598 16.343,19.652 47.234,3.172 49.863,35.765 68.102,117.652 18.043,94.414" /><path
         id="path36"
         style="fill:#040606;fill-opacity:1;fill-rule:nonzero;stroke:none"
         d="m 173.652,158.43 c 5.93,0.554 2.266,17.758 -1.535,28.531 -5.281,15.012 -21.812,35.547 -26.84,38.547 -0.699,-9.707 1.536,-28.09 6.082,-39.488 5.551,-13.899 16.364,-28.157 22.293,-27.59" /><path
         id="path38"
         style="fill:#040606;fill-opacity:1;fill-rule:nonzero;stroke:none"
         d="m 235.992,186.965 c -3.789,-10.781 -7.465,-27.977 -1.535,-28.531 5.93,-0.575 16.754,13.683 22.285,27.589 4.559,11.399 6.789,29.774 6.102,39.493 -5.047,-3.012 -21.559,-23.547 -26.852,-38.551" /><path
         id="path40"
         style="fill:#040606;fill-opacity:1;fill-rule:nonzero;stroke:none"
         d="m 204.059,164.555 c 10.425,-0.157 12.679,37.941 0,65.195 -12.676,-27.254 -10.375,-65.055 0,-65.195" /><path
         id="path42"
         style="fill:#040606;fill-opacity:1;fill-rule:nonzero;stroke:none"
         d="m 192.488,135.859 c -0.586,11.614 -27.992,5.293 -34.808,-0.195 3.777,-2.582 35.433,-12.289 34.808,0.195" /><path
         id="path44"
         style="fill:#040606;fill-opacity:1;fill-rule:nonzero;stroke:none"
         d="m 259.477,134.605 c 20.378,-17.531 -8.493,-39.2612 -55.293,-39.2925 l -0.266,0 c -46.793,0.0313 -75.664,21.7615 -55.273,39.2925 -76.4614,46.25 -67.9302,137.633 -12.68,103.793 0.719,0.575 4.824,25.461 27.879,29.004 19.457,3 35.566,-17.644 40.215,-24.004 4.64,6.36 20.761,27.004 40.207,24.004 23.054,-3.543 27.16,-28.429 27.867,-29.004 55.262,33.84 63.793,-57.543 -12.656,-103.793 m -67.993,160.954 c 5.817,0 10.528,-4.711 10.528,-10.539 0,-5.809 -4.711,-10.528 -10.528,-10.528 -5.816,0 -10.539,4.719 -10.539,10.528 0,5.828 4.723,10.539 10.539,10.539 m 13.168,22.601 c 5.821,0 10.532,-4.703 10.532,-10.527 0,-5.82 -4.711,-10.531 -10.532,-10.531 -5.828,0 -10.539,4.711 -10.539,10.531 0,5.824 4.711,10.527 10.539,10.527 m 23.055,-33.14 c 0,-5.809 -4.711,-10.528 -10.527,-10.528 -5.817,0 -10.528,4.719 -10.528,10.528 0,5.828 4.711,10.539 10.528,10.539 5.816,0 10.527,-4.711 10.527,-10.539 m -24.648,56.343 c -79.594,0 -135.4262,-58.406 -135.4262,-143.179 0,-84.766 55.8322,-141.391 135.4262,-141.391 79.605,0 136.941,57.516 136.941,142.281 0,84.778 -57.336,142.289 -136.941,142.289" /><path
         id="path46"
         style="fill:#040606;fill-opacity:1;fill-rule:nonzero;stroke:none"
         d="m 204.008,48.6406 c -83.098,0 -150.4533,67.3554 -150.4533,150.4374 0,83.098 67.3553,150.453 150.4533,150.453 83.082,0 150.441,-67.355 150.441,-150.453 0,-83.082 -67.359,-150.4374 -150.441,-150.4374 M 392.305,178.52 c -2.871,11.867 -2.871,31.085 0,42.953 l 6.953,28.722 c 2.871,11.875 -2.84,27.379 -12.762,34.645 l -24.023,17.586 c -9.93,7.277 -22.442,22 -27.965,32.914 l -13.375,26.418 c -5.524,10.914 -19.996,19.172 -32.32,18.433 l -29.86,-1.781 c -12.316,-0.73 -31.496,2.606 -42.828,7.469 l -27.437,11.742 c -11.333,4.852 -27.79,1.992 -36.758,-6.391 l -21.711,-20.32 c -8.977,-8.394 -25.832,-17.992 -37.6799,-21.476 L 63.875,341.02 C 52.0391,337.539 41.2969,324.902 39.8906,312.785 l -3.414,-29.347 c -1.4219,-12.118 -8.086,-30.2 -14.8828,-40.364 L 5.10547,218.418 c -6.8086,-10.176 -6.8086,-26.68 0,-36.855 L 21.5938,156.914 c 6.7968,-10.172 13.4609,-28.254 14.8828,-40.375 l 3.414,-29.3359 C 41.2969,75.0859 52.0391,62.4414 63.875,58.9688 L 92.5391,50.5469 C 104.387,47.082 121.242,37.4648 130.219,29.0703 L 151.93,8.76172 c 8.968,-8.375001 25.425,-11.25391 36.758,-6.40234 l 27.437,11.75002 c 11.332,4.8554 30.512,8.1992 42.828,7.4687 l 29.86,-1.7773 c 12.324,-0.7422 26.796,7.5156 32.32,18.4297 l 13.375,26.4179 c 5.523,10.9024 18.035,25.6407 27.965,32.8946 l 24.023,17.605 c 9.922,7.258 15.633,22.762 12.762,34.637 l -6.953,28.735" /></g></g></svg>