<?xml version="1.0" encoding="utf-8"?>
<!-- Generator: Adobe Illustrator 16.0.0, SVG Export Plug-In . SVG Version: 6.00 Build 0)  -->
<!DOCTYPE svg PUBLIC "-//W3C//DTD SVG 1.1//EN" "http://www.w3.org/Graphics/SVG/1.1/DTD/svg11.dtd">
<svg version="1.1" id="Ebene_1" xmlns="http://www.w3.org/2000/svg" xmlns:xlink="http://www.w3.org/1999/xlink" x="0px" y="0px"
	 width="224px" height="224px" viewBox="0 0 224 224" enable-background="new 0 0 224 224" xml:space="preserve">
<g>
	<defs>
		<rect id="SVGID_1_" x="1" y="1" width="222" height="222"/>
	</defs>
	<clipPath id="SVGID_2_">
		<use xlink:href="#SVGID_1_"  overflow="visible"/>
	</clipPath>
	<path clip-path="url(#SVGID_2_)" fill="#FF7756" d="M86.235,75.265c0,0.275-0.228,1.085,0.046,1.085h22.76v-6.941H86.235V75.265z"
		/>
	<path clip-path="url(#SVGID_2_)" fill="#FF7756" d="M175.264,134.855h22.026v-6.941h-22.804v7.535
		C174.486,135.726,174.989,134.855,175.264,134.855"/>
	<path clip-path="url(#SVGID_2_)" fill="#FF7756" d="M130.855,114.45c0-0.274,0.359,1.564,0.084,1.564h-21.508
		c-0.274,0-0.39-1.839-0.39-1.564v6.522h21.814V114.45z"/>
	<path clip-path="url(#SVGID_2_)" fill="#FF7756" d="M167.013,203.277c-5.22,0-9.385-3.381-9.385-8.628v-44.92h8.924v44.92
		c0,0.273,0.189-0.297,0.461-0.297h19.443C208.897,173.527,223,144.844,223,112.029c0-22.338-6.544-42.947-17.801-60.393
		l-11.311,13.033l16.291,17.78v2.825h-10.389l-14.225-15.866h-7.116v15.866h-8.924V31.727h8.924v28.757h7.116l14.544-15.751
		C179.835,18.187,147.746,1,111.878,1c-27.5,0-52.415,9.996-72.246,26.655v16.962H62.03c5.153,0,9.333,4.399,9.333,9.648v31.008
		h-8.925V54.266c0-0.277-0.133,0.268-0.407,0.268H40.521c-0.275,0-0.888-0.544-0.888-0.268v31.008h-8.924v-48.96
		C12.86,56.241,1,82.632,1,112.057c0,42.708,24.06,79.321,59.142,98.162h28.479c0.207,0,0.589,0.59,0.589,0.315v-7.257H67.042
		c-5.221,0-9.562-3.381-9.562-8.628v-21c0-5.249,4.341-11.029,9.562-11.029h21.578c5.223,0,9.514,5.78,9.514,11.029v36.885
		c0,5.249-4.291,8.61-9.514,8.61h-5.496c9.231,2.973,18.939,3.855,28.957,3.855c23.405,0,45.114-7.823,63.01-19.723H167.013z
		 M33.683,143.78h-7.32c-5.223,0-9.536-3.082-9.536-8.331V92.215h8.924v43.234c0,0.276,0.337-0.594,0.612-0.594h7.32V143.78z
		 M165.561,120.973h31.729v-6.522c0-0.274-0.243,1.564-0.516,1.564h-31.214v-9.917h31.214c5.222,0,10.432,3.105,10.432,8.353v29.33
		h-31.942c-5.221,0-9.703-3.082-9.703-8.331V120.973z M121.93,54.266c0-5.249,5.027-9.648,10.25-9.648h31.397v9.916H132.18
		c-0.277,0-0.333-0.544-0.333-0.268v20.999c0,0.276,0.056,1.085,0.333,1.085h31.397v8.924H132.18c-5.223,0-10.25-4.76-10.25-10.009
		V54.266z M50.539,143.78h-9.916v-37.683h9.916V143.78z M50.539,101.139h-9.916v-8.924h9.916V101.139z M98.134,107.268
		l-15.941,17.684l15.941,17.681v1.147H87.721l-14.225-15.866h-7.091v15.866H57.48V92.215h8.924v28.757h7.091l14.225-14.875h10.414
		V107.268z M86.282,85.274c-5.222,0-8.97-4.76-8.97-10.009V60.483h31.73v-6.217c0-0.277-0.977,0.268-1.25,0.268H77.312v-9.916
		h30.479c5.223,0,9.183,4.399,9.183,9.648v31.008H86.282z M100.117,135.449V114.45c0-5.248,4.091-8.353,9.314-8.353h21.508
		c5.224,0,8.841,3.105,8.841,8.353v13.464h-30.739v7.535c0,0.276,0.115-0.594,0.39-0.594h30.349v8.925h-30.349
		C104.208,143.78,100.117,140.698,100.117,135.449 M114.001,203.277h-7.935V162.62h7.935V203.277z M114.001,158.655h-7.935v-8.926
		h7.935V158.655z M152.67,172.538h-21.935c-0.271,0-0.871,0.836-0.871,1.111v29.628h-8.923v-29.628
		c0-5.249,4.572-11.029,9.794-11.029h21.935V172.538z"/>
	<path clip-path="url(#SVGID_2_)" fill="#FF7756" d="M88.621,172.538H67.042c-0.274,0-0.638,0.836-0.638,1.111v21
		c0,0.273,0.364-0.297,0.638-0.297h21.578c0.207,0,0.589,0.57,0.589,0.297v-21C89.21,173.374,88.828,172.538,88.621,172.538"/>
</g>
</svg>
