<?xml version="1.0" encoding="UTF-8" standalone="no"?>
<svg
   xmlns:dc="http://purl.org/dc/elements/1.1/"
   xmlns:cc="http://creativecommons.org/ns#"
   xmlns:rdf="http://www.w3.org/1999/02/22-rdf-syntax-ns#"
   xmlns:svg="http://www.w3.org/2000/svg"
   xmlns="http://www.w3.org/2000/svg"
   viewBox="0 0 716.21252 138.7375"
   height="138.7375"
   width="716.21252"
   xml:space="preserve"
   version="1.1"
   id="svg2"><metadata
     id="metadata8"><rdf:RDF><cc:Work
         rdf:about=""><dc:format>image/svg+xml</dc:format><dc:type
           rdf:resource="http://purl.org/dc/dcmitype/StillImage" /></cc:Work></rdf:RDF></metadata><defs
     id="defs6" /><g
     transform="matrix(1.25,0,0,-1.25,0,138.7375)"
     id="g10"><g
       transform="scale(0.1,0.1)"
       id="g12"><path
         id="path14"
         style="fill:#231f20;fill-opacity:1;fill-rule:nonzero;stroke:none"
         d="m 1540.06,405.91 0,298.035 66.81,0 45.22,-132.007 0.81,0 0,132.007 59.81,0 0,-298.035 -64.78,0 -47.24,154.383 -0.81,0 0,-154.383 -59.82,0" /><path
         id="path16"
         style="fill:#231f20;fill-opacity:1;fill-rule:nonzero;stroke:none"
         d="m 1854.6,501.332 34.83,0 -17.37,122.465 -0.87,0 -16.59,-122.465 z m 110.8,-95.422 -66.43,0 -5.75,37.356 -42.38,0 -5.77,-37.356 -66.38,0 51.43,298.035 83.84,0 51.44,-298.035" /><path
         id="path18"
         style="fill:#231f20;fill-opacity:1;fill-rule:nonzero;stroke:none"
         d="m 2125.52,642.473 0,-236.563 -69.72,0 0,236.563 -53.92,0 0,61.472 177.57,0 0,-61.472 -53.93,0" /><path
         id="path20"
         style="fill:#231f20;fill-opacity:1;fill-rule:nonzero;stroke:none"
         d="m 2245.44,405.91 69.75,0 0,298.035 -69.75,0 0,-298.035 z" /><path
         id="path22"
         style="fill:#231f20;fill-opacity:1;fill-rule:nonzero;stroke:none"
         d="m 2508.98,703.945 64.3,0 -54.35,-298.035 -68.91,0 -63.44,298.035 66.8,0 29.06,-171.82 0.78,0 25.76,171.82" /><path
         id="path24"
         style="fill:#231f20;fill-opacity:1;fill-rule:nonzero;stroke:none"
         d="m 2639.31,405.91 0,298.035 150.99,0 0,-61.472 -81.34,0 0,-50.625 67.22,0 0,-63.922 -67.22,0 0,-58.125 85.53,0 0,-63.891 -155.18,0" /><path
         id="path26"
         style="fill:#231f20;fill-opacity:1;fill-rule:nonzero;stroke:none"
         d="m 2987.48,405.91 69.7188,0 0,298.035 -69.7188,0 0,-298.035 z" /><path
         id="path28"
         style="fill:#231f20;fill-opacity:1;fill-rule:nonzero;stroke:none"
         d="m 3147.18,405.91 0,298.035 66.85,0 45.2,-132.007 0.88,0 0,132.007 59.75,0 0,-298.035 -64.79,0 -47.23,154.383 -0.84,0 0,-154.383 -59.82,0" /><path
         id="path30"
         style="fill:#231f20;fill-opacity:1;fill-rule:nonzero;stroke:none"
         d="m 3512.42,611.777 c -0.85,32.344 -10.39,41.489 -25.36,41.489 -13.23,0 -20.31,-9.145 -20.31,-19.957 0,-35.614 112.07,-64.711 112.07,-147.727 0,-59.73 -36.16,-84.66 -93.81,-84.66 -73.41,0 -87.13,51.101 -87.13,104.172 l 64.77,0 0,-13.672 c 0,-19.934 10.74,-34.867 27.35,-34.867 14.12,0 24.12,8.254 24.12,24.054 0,39.446 -112.07,70.118 -112.07,150.243 0,50.253 39.81,78.007 85.43,78.007 52.35,0 88.05,-34.429 88.05,-84.269 l 0,-12.813 -63.11,0" /><path
         id="path32"
         style="fill:#231f20;fill-opacity:1;fill-rule:nonzero;stroke:none"
         d="m 3761.42,642.473 0,-236.563 -69.71,0 0,236.563 -53.97,0 0,61.472 177.65,0 0,-61.472 -53.97,0" /><path
         id="path34"
         style="fill:#231f20;fill-opacity:1;fill-rule:nonzero;stroke:none"
         d="m 3953.09,578.551 12.48,0 c 19.03,0 25.69,11.625 25.69,35.687 0,24.063 -6.66,35.731 -25.69,35.731 l -12.48,0 0,-71.418 z m -67.22,-172.641 0,298.035 86.32,0 c 59.8,0 85.5,-20.007 85.5,-83.863 0,-47.699 -19.9,-62.25 -33.18,-66.797 l 0,-0.906 c 24.88,-4.504 32.33,-46.828 32.33,-84.223 0,-29.871 3.36,-50.613 9.12,-62.246 l -68.04,0 c -5.8,24.465 -8.26,40.688 -8.26,61.867 0,50.188 -4.15,59.356 -26.56,59.356 l -10.01,0 0,-121.223 -67.22,0" /><path
         id="path36"
         style="fill:#231f20;fill-opacity:1;fill-rule:nonzero;stroke:none"
         d="m 4315.85,703.945 0,-224.996 c 0,-49.804 -30.74,-78.027 -86.38,-78.027 -55.57,0 -86.24,28.223 -86.24,78.027 l 0,224.996 69.68,0 0,-216.707 c 0,-14.91 3.77,-23.203 16.56,-23.203 12.88,0 16.66,8.293 16.66,23.203 l 0,216.707 69.72,0" /><path
         id="path38"
         style="fill:#231f20;fill-opacity:1;fill-rule:nonzero;stroke:none"
         d="m 4398.36,405.91 0,298.035 82.24,0 29,-142.007 0.9,0 28.59,142.007 82.16,0 0,-298.035 -59.77,0 0,177.61 -0.83,0 -31.51,-177.61 -38.62,0 -31.55,177.61 -0.79,0 0,-177.61 -59.82,0" /><path
         id="path40"
         style="fill:#231f20;fill-opacity:1;fill-rule:nonzero;stroke:none"
         d="m 4703.81,405.91 0,298.035 151.08,0 0,-61.472 -81.35,0 0,-50.625 67.24,0 0,-63.922 -67.24,0 0,-58.125 85.5,0 0,-63.891 -155.23,0" /><path
         id="path42"
         style="fill:#231f20;fill-opacity:1;fill-rule:nonzero;stroke:none"
         d="m 4937.82,405.91 0,298.035 66.87,0 45.17,-132.007 0.89,0 0,132.007 59.78,0 0,-298.035 -64.8,0 -47.27,154.383 -0.83,0 0,-154.383 -59.81,0" /><path
         id="path44"
         style="fill:#231f20;fill-opacity:1;fill-rule:nonzero;stroke:none"
         d="m 5304.72,642.473 0,-236.563 -69.72,0 0,236.563 -53.97,0 0,61.472 177.62,0 0,-61.472 -53.93,0" /><path
         id="path46"
         style="fill:#231f20;fill-opacity:1;fill-rule:nonzero;stroke:none"
         d="m 5527.14,611.777 c -0.81,32.344 -10.32,41.489 -25.29,41.489 -13.29,0 -20.32,-9.145 -20.32,-19.957 0,-35.614 112.07,-64.711 112.07,-147.727 0,-59.73 -36.12,-84.66 -93.76,-84.66 -73.49,0 -87.2,51.101 -87.2,104.172 l 64.74,0 0,-13.672 c 0,-19.934 10.78,-34.867 27.37,-34.867 14.14,0 24.09,8.254 24.09,24.054 0,39.446 -112.05,70.118 -112.05,150.243 0,50.253 39.78,78.007 85.46,78.007 52.31,0 88.06,-34.429 88.06,-84.269 l 0,-12.813 -63.17,0" /><path
         id="path48"
         style="fill:#61849c;fill-opacity:1;fill-rule:nonzero;stroke:none"
         d="m 1070.34,359.418 -91.539,0 0,391.164 91.539,0 0,-391.164 z m 178.45,519.379 C 1082.4,837.52 943.375,824.852 777.473,824.762 l 0,-537.383 c 164.32,-2.16 311.337,-19.492 471.947,-54.699 33.32,125.402 50.05,432.398 -0.63,646.117" /><path
         id="path50"
         style="fill:#231f20;fill-opacity:1;fill-rule:nonzero;stroke:none"
         d="M 285.191,919.453 276,882.488 C 442.715,840.859 610.199,819.98 777.887,819.98 l 1.183,0 c 167.383,0.137 335.05,20.926 502.44,62.508 l -9.19,36.965 -35.89,-12.765 c 12.3,-33.938 22.62,-87.29 29.28,-148.938 6.73,-61.84 10.19,-132.332 10.19,-202.727 0,-70.488 -3.46,-140.988 -10.19,-202.746 -6.66,-61.765 -17.01,-115.136 -29.28,-149.058 l 35.89,-12.785 9.19,36.914 c -167.39,41.629 -335.057,62.461 -502.44,62.625 l 0.418,0 -1.601,0 c -167.688,0 -335.172,-20.899 -501.953,-62.625 l 9.257,-36.914 35.918,12.761 c -12.183,33.946 -22.504,87.317 -29.168,149.082 -6.82,61.758 -10.207,132.258 -10.207,202.746 0,70.446 3.457,140.957 10.207,202.727 6.664,61.648 16.985,115 29.168,148.938 l -35.918,12.765 -9.191,-36.965 9.191,36.965 -35.851,12.824 c -15.516,-43.8 -25.938,-101 -33.152,-166.293 -7.125,-65.156 -10.7,-138.054 -10.7,-210.961 0,-72.91 3.575,-145.832 10.7,-211.062 7.214,-65.254 17.636,-122.484 33.152,-166.34 l 11.539,-32.598 33.523,8.438 c 161.008,40.176 322.157,60.312 483.485,60.312 l 1.136,0 c 161.098,-0.117 322.437,-20.222 484.177,-60.351 l 33.48,-8.313 11.61,32.512 c 15.47,43.856 25.94,101.086 33.16,166.34 7.11,65.23 10.67,138.152 10.67,211.062 0,72.907 -3.51,145.805 -10.67,210.961 -7.22,65.293 -17.69,122.493 -33.18,166.293 l -11.59,32.469 -33.48,-8.285 C 1101.5,916.387 940.121,896.297 779.023,896.199 l 0.465,0 -1.601,0 c -161.328,0 -322.477,20.074 -483.485,60.262 l -33.523,8.379 -11.539,-32.563 35.851,-12.824" /><path
         id="path52"
         style="fill:#231f20;fill-opacity:1;fill-rule:nonzero;stroke:none"
         d="m 496.641,360.121 0,202.727 1.093,0 62.09,-202.727 85.016,0 0,391.156 -78.449,0 0,-173.261 -1.114,0 -59.398,173.261 -87.711,0 0,-391.156 78.473,0" /></g></g></svg>