<?xml version="1.0" encoding="UTF-8" standalone="no"?>
<svg
   xmlns:dc="http://purl.org/dc/elements/1.1/"
   xmlns:cc="http://creativecommons.org/ns#"
   xmlns:rdf="http://www.w3.org/1999/02/22-rdf-syntax-ns#"
   xmlns:svg="http://www.w3.org/2000/svg"
   xmlns="http://www.w3.org/2000/svg"
   viewBox="0 0 379.82501 99.512497"
   height="99.512497"
   width="379.82501"
   xml:space="preserve"
   version="1.1"
   id="svg2"><metadata
     id="metadata8"><rdf:RDF><cc:Work
         rdf:about=""><dc:format>image/svg+xml</dc:format><dc:type
           rdf:resource="http://purl.org/dc/dcmitype/StillImage" /></cc:Work></rdf:RDF></metadata><defs
     id="defs6" /><g
     transform="matrix(1.25,0,0,-1.25,0,99.5125)"
     id="g10"><g
       transform="scale(0.1,0.1)"
       id="g12"><path
         id="path14"
         style="fill:#4c91cc;fill-opacity:1;fill-rule:nonzero;stroke:none"
         d="m 96.2695,176.184 c 0,-11.582 2.5508,-23.262 7.6995,-35.149 5.117,-11.875 13.789,-22.605 25.992,-32.234 12.191,-9.6291 28.406,-17.6565 48.617,-24.0744 20.195,-6.4063 45.715,-9.6211 76.527,-9.6211 30.817,0 56.168,2.3945 76.051,7.2304 19.879,4.793 35.625,11.0547 47.164,18.7501 11.539,7.715 19.571,16.199 24.09,25.516 4.477,9.289 6.75,18.457 6.75,27.421 0,17.981 -6.289,32.395 -18.793,43.348 -12.531,10.883 -38.023,18.918 -76.527,24.047 L 155.012,242.59 c -18.657,2.566 -36.106,7.39 -52.477,14.469 -16.3787,7.035 -30.8397,16.039 -43.3358,26.957 -12.5312,10.894 -22.4726,24.043 -29.8476,39.468 -7.3633,15.395 -11.0899,33.043 -11.0899,52.911 0,52.007 20.3906,92.097 61.1328,120.347 40.7695,28.254 97.0825,42.367 168.9885,42.367 41.058,0 76.676,-4.183 106.836,-12.515 30.168,-8.332 55.203,-20.051 75.109,-35.149 19.867,-15.066 35.133,-33.05 45.695,-53.902 10.614,-20.859 16.852,-43.5 18.778,-67.855 l -96.262,0 c -1.293,25.648 -14.316,47.792 -38.973,66.406 -24.711,18.613 -62.089,27.91 -112.171,27.91 -15.407,0 -30.95,-1.289 -46.68,-3.859 -15.715,-2.54 -29.996,-6.723 -42.828,-12.481 -12.844,-5.777 -23.282,-13.641 -31.289,-23.582 -8.051,-9.984 -12.043,-22.324 -12.043,-37.051 0,-16.695 5.429,-30.176 16.375,-40.468 10.906,-10.262 33.351,-17.657 67.386,-22.137 L 335,306.133 c 63.539,-8.985 108.801,-24.699 135.758,-47.156 26.941,-22.485 40.402,-51.34 40.402,-86.641 0,-29.531 -5.918,-55.051 -17.801,-76.5274 C 481.469,74.2578 464.504,56.4766 442.348,42.3516 420.199,28.2227 393.574,17.6367 362.441,10.6133 331.301,3.55469 296.492,0 257.988,0 229.121,0 199.91,2.24609 170.383,6.76953 140.867,11.25 113.887,20.0273 89.5313,33.2305 65.1133,46.3945 44.7617,64.3359 28.3984,87.1289 12.0469,109.883 2.53906,139.59 0,176.184 l 96.2695,0" /><path
         id="path16"
         style="fill:#4c91cc;fill-opacity:1;fill-rule:nonzero;stroke:none"
         d="m 1948.94,161.145 c -10.55,-17.231 -24.93,-32.051 -43.06,-44.485 -18.21,-12.433 -39.42,-22.0116 -63.66,-28.7381 -24.22,-6.6524 -49.76,-10.0391 -76.54,-10.0391 -35.05,0 -63.32,7.3516 -84.69,21.9883 -21.37,14.7309 -32.06,33.8399 -32.06,57.4729 0,26.777 9.4,45.91 28.24,57.39 18.81,11.465 47.33,19.786 85.61,24.895 l 108.17,13.367 c 26.77,3.176 47.33,6.84 61.69,10.996 14.33,4.121 25.04,10.41 32.06,18.653 l 0,-64.082 c 0,-21.075 -5.26,-40.172 -15.76,-57.418 z m 84.18,307.156 c -14.33,18.5 -32.87,33.015 -55.5,43.512 -22.64,10.535 -47.55,17.73 -74.62,21.55 -27.14,3.825 -53.46,5.746 -78.95,5.746 -75.32,0 -133.98,-13.425 -176.09,-40.214 -42.08,-26.786 -66.31,-71.422 -72.75,-133.922 l 89.98,0 c 0.62,19.144 5.27,35.07 13.88,47.816 8.64,12.758 19.95,22.977 33.96,30.617 14.03,7.649 30.3,13.086 48.81,16.282 18.46,3.195 37.96,4.789 58.38,4.789 19.15,0 37.48,-1.114 55.01,-3.36 17.53,-2.226 33.04,-6.219 46.4,-11.976 13.41,-5.735 23.95,-14.028 31.59,-24.864 7.65,-10.847 11.48,-24.863 11.48,-42.058 0,-22.375 -7.83,-37.336 -23.45,-45.024 -15.66,-7.656 -36.83,-12.769 -63.63,-15.293 l -109.08,-11.48 c -40.23,-4.492 -73.99,-10.863 -101.43,-19.145 -27.42,-8.3 -49.6,-18.679 -66.5,-31.109 -16.92,-12.441 -29.05,-27.434 -36.36,-44.973 -7.36,-17.527 -11.01,-37.773 -11.01,-60.73 0,-16.594 2.88,-33.695 8.62,-51.235 5.73,-17.5386 16.1,-33.7886 31.05,-48.7573 15.01,-15.0196 35.79,-27.2852 62.28,-36.836 26.42,-9.56248 60.38,-14.39451 101.86,-14.39451 20.39,0 41.16,1.8164 62.21,5.29297 21.05,3.53514 41.17,8.77734 60.29,15.77344 19.14,7.0078 36.63,15.625 52.6,25.8555 12.88,8.2343 23.08,16.1445 31.81,26.0664 l 0,-57.8711 90.7,0 0,378.1716 c 0,29.321 -7.21,53.239 -21.54,71.77" /><path
         id="path18"
         style="fill:#4c91cc;fill-opacity:1;fill-rule:nonzero;stroke:none"
         d="m 1366.01,337.898 c 0,23.102 -3.37,42.356 -10.12,57.766 -6.74,15.406 -15.74,27.754 -26.96,37.055 -11.22,9.312 -24.24,15.894 -38.97,19.754 -14.78,3.855 -29.85,5.765 -45.28,5.765 -21.8,0 -42.67,-2.718 -62.56,-8.199 -19.9,-5.453 -37.53,-13.617 -52.91,-24.527 -15.44,-10.922 -27.6,-24.891 -36.62,-41.879 -8.98,-17.016 -13.45,-37.383 -13.45,-61.121 l 0,-305.1995 -96.269,0 0,320.5855 c 0,23.102 -3.391,42.356 -10.137,57.766 -6.722,15.406 -15.722,27.754 -26.941,37.055 -11.223,9.312 -24.227,15.894 -38.969,19.754 -14.777,3.855 -29.871,5.765 -45.258,5.765 -21.816,0 -42.675,-3.218 -62.574,-9.625 -19.906,-6.425 -37.523,-15.894 -52.941,-28.375 -15.399,-12.554 -27.574,-28.121 -36.613,-46.691 -8.958,-18.613 -13.458,-40.473 -13.458,-65.488 l 0,-290.7465 -96.269,0 0,504.4415 96.269,0 0,-76.031 1.934,0 c 23.75,35.297 53.41,59.707 89.059,73.179 35.605,13.469 71.718,20.207 108.293,20.207 32.722,0 64.312,-7.234 94.812,-21.66 30.482,-14.426 55.972,-38.363 76.532,-71.726 23.12,28.89 50.84,51.625 83.29,68.34 32.39,16.703 72.67,25.046 120.8,25.046 12.83,0 29.98,-2.078 51.5,-6.226 21.49,-4.223 42.67,-12.555 63.54,-25.063 20.85,-12.511 38.81,-30.484 53.92,-53.914 15.06,-23.437 22.62,-54.394 22.62,-92.906 l 0,-343.6875 -96.27,0 0,320.5855" /><path
         id="path20"
         style="fill:#4c91cc;fill-opacity:1;fill-rule:nonzero;stroke:none"
         d="m 2692.8,523.848 -101.64,0 0.23,90.882 c -27.35,0 -48.9,0 -76.68,0 l 0,-90.882 -136.97,0 0,-0.68 c -0.06,0.211 -0.18,0.406 -0.24,0.621 -38.35,-3.84 -106.28,-18.676 -129.07,-56.75 l 0,57.645 -94.47,0 0,-506.3246 94.17,0 0.3,262.6246 c 0,53.555 14.99,93.661 43.92,121.395 50.49,48.43 91.63,45.105 130.33,49.894 l 92.03,0 0,-181.902 c 0,-73.789 26.06,-136.75 78.23,-188.9062 32.51,-32.5195 58.94,-51.5546 99.86,-63.8007 0,27.7851 0,55.8437 0,83.4689 -20.39,9.238 -28.89,17.148 -45.99,34.25 -37.19,37.195 -55.8,82.183 -55.8,134.988 0,18.977 0.52,154.078 0.17,181.902 l 101.62,0 0,71.575" /><path
         id="path22"
         style="fill:#4c91cc;fill-opacity:1;fill-rule:nonzero;stroke:none"
         d="m 2769.31,17.5586 c -0.3,-0.0586 1.9,-0.125 0,0 l 0,0" /><path
         id="path24"
         style="fill:#4c91cc;fill-opacity:1;fill-rule:nonzero;stroke:none"
         d="m 2960.32,465.383 c -31.68,31.105 -67.36,48.519 -107.02,57.43 17.11,26.984 27.14,58.414 27.14,92.191 0,100.035 -85.93,181.117 -191.93,181.117 -77.18,0 -143.41,-43.117 -173.8,-105.144 28.26,0 56.54,0 84.81,0 22.84,24.722 57.47,40.5 94.39,40.5 66.37,0 120.18,-50.762 120.18,-113.407 0,-35.117 -19.29,-73.5 -45.86,-94.316 l 0,-71.117 c 52.7,-0.032 101.07,-3.707 138.23,-40.199 37.19,-36.532 55.8,-80.711 55.8,-132.543 0,-51.848 -18.61,-96.028 -55.8,-132.551 -37.22,-36.543 -82.22,-54.7854 -135.01,-54.7854 -1.53,0 -2.06,-0.0313 -2.15,-0.0703 -0.33,0.0312 -0.7,0.0703 -1.27,0.1172 0,-25.0782 0,-49.9024 0,-74.9688 0.59,-0.039 0.96,-0.0703 1.28,-0.0781 0.12,0.0078 0.65,0.0391 2.14,0.0391 73.78,0 136.74,25.6054 188.87,76.8046 52.17,51.2227 78.23,113.0467 78.23,185.4927 0,72.445 -26.06,134.265 -78.23,185.488" /></g></g></svg>